<svg width="25" height="25" viewBox="0 0 25 25" fill="none" xmlns="http://www.w3.org/2000/svg">
<path d="M12.8 24.3942C14.4569 24.3942 15.8 23.051 15.8 21.3942H9.80005C9.80005 23.051 11.1432 24.3942 12.8 24.3942Z" fill="#5E5F60"/>
<path d="M12.8001 3.27154L11.6043 3.51304C8.86333 4.0666 6.80008 6.49111 6.80008 9.39417C6.80008 10.3359 6.59854 12.69 6.11178 15.0074C5.87015 16.1578 5.54686 17.3556 5.11719 18.3942H20.4829C20.0533 17.3556 19.73 16.1578 19.4883 15.0074C19.0016 12.69 18.8001 10.3359 18.8001 9.39417C18.8001 6.49109 16.7368 4.06657 13.9959 3.51303L12.8001 3.27154ZM22.129 18.3942C22.4639 19.0653 22.8523 19.5956 23.3 19.8942H2.30005C2.74784 19.5956 3.13622 19.0653 3.4711 18.3942C4.81888 15.6932 5.30008 10.7129 5.30008 9.39417C5.30008 5.76317 7.88035 2.73484 11.3073 2.04273C11.3025 1.99386 11.3 1.9443 11.3 1.89417C11.3 1.06574 11.9716 0.394165 12.8 0.394165C13.6285 0.394165 14.3 1.06574 14.3 1.89417C14.3 1.94429 14.2976 1.99385 14.2928 2.04272C17.7198 2.7348 20.3001 5.76315 20.3001 9.39417C20.3001 10.7129 20.7812 15.6932 22.129 18.3942Z" fill="#5E5F60"/>
</svg>
