<svg width="17" height="18" viewBox="0 0 17 18" fill="none" xmlns="http://www.w3.org/2000/svg">
<path d="M6.04346 18.0049C4.83154 18.0049 3.78288 17.8001 2.89746 17.3906C2.01204 16.9811 1.32585 16.4001 0.838867 15.6475C0.357422 14.9004 0.116699 14.015 0.116699 12.9912V2.52393C0.116699 1.97607 0.407227 1.51676 0.988281 1.146C1.56934 0.769694 2.36621 0.487467 3.37891 0.299316C4.39714 0.105632 5.55371 0.00878906 6.84863 0.00878906C8.14909 0.00878906 9.30566 0.105632 10.3184 0.299316C11.3311 0.487467 12.1279 0.769694 12.709 1.146C13.29 1.51676 13.5806 1.97607 13.5806 2.52393V12.9912C13.5806 14.015 13.3398 14.9004 12.8584 15.6475C12.377 16.4001 11.6908 16.9811 10.7998 17.3906C9.91439 17.8001 8.86572 18.0049 7.65381 18.0049H6.04346ZM6.84863 2.96387C7.81706 2.96387 8.66927 2.93066 9.40527 2.86426C10.1413 2.79785 10.7168 2.70654 11.1318 2.59033C11.5469 2.46859 11.7544 2.33024 11.7544 2.17529C11.7544 2.02035 11.5469 1.88477 11.1318 1.76855C10.7168 1.64681 10.1413 1.55273 9.40527 1.48633C8.66927 1.41992 7.81706 1.38672 6.84863 1.38672C5.88021 1.38672 5.02799 1.41992 4.29199 1.48633C3.55599 1.55273 2.98047 1.64681 2.56543 1.76855C2.15039 1.88477 1.94287 2.02035 1.94287 2.17529C1.94287 2.33024 2.15039 2.46859 2.56543 2.59033C2.98047 2.70654 3.55599 2.79785 4.29199 2.86426C5.02799 2.93066 5.88021 2.96387 6.84863 2.96387ZM12.5845 12.9663V11.5137H14.0703C14.4521 11.5137 14.7288 11.4251 14.9004 11.248C15.0719 11.0654 15.1577 10.7694 15.1577 10.3599V7.03955C15.1577 6.63005 15.0719 6.33675 14.9004 6.15967C14.7288 5.97705 14.4521 5.88574 14.0703 5.88574H12.5845V4.43311H14.0703C14.8395 4.43311 15.4538 4.67106 15.9131 5.14697C16.3779 5.61735 16.6104 6.24821 16.6104 7.03955V10.3599C16.6104 11.1512 16.3779 11.7848 15.9131 12.2607C15.4538 12.7311 14.8395 12.9663 14.0703 12.9663H12.5845Z" fill="#FFFDFF"/>
</svg>
