<svg width="24" height="25" viewBox="0 0 24 25" fill="none" xmlns="http://www.w3.org/2000/svg">
<path d="M12 24.4188C18.2132 24.4188 23.25 19.382 23.25 13.1688C23.25 7.9736 19.7285 3.6009 14.9423 2.30746C14.9799 2.17617 15 2.03751 15 1.89417C15 1.06574 14.3284 0.394165 13.5 0.394165H10.5C9.67156 0.394165 8.99998 1.06574 8.99998 1.89417C8.99998 2.03752 9.02009 2.17617 9.05765 2.30747C4.27147 3.60092 0.75 7.97361 0.75 13.1688C0.75 19.382 5.7868 24.4188 12 24.4188ZM21.75 13.1688C21.75 18.5536 17.3848 22.9188 12 22.9188C6.61522 22.9188 2.25 18.5536 2.25 13.1688C2.25 7.78402 6.61522 3.41879 12 3.41879C17.3848 3.41879 21.75 7.78402 21.75 13.1688Z" fill="#5E5F60"/>
<path d="M10.4091 11.5532L17.8337 7.31052L13.5911 14.7351L6.16644 18.9778L10.4091 11.5532Z" fill="#5E5F60"/>
</svg>
