<svg width="25" height="25" viewBox="0 0 25 25" fill="none" xmlns="http://www.w3.org/2000/svg">
<path d="M18.5487 13.6997C17.7627 15.2923 16.6987 16.8802 15.6087 18.3051C14.522 19.7256 13.4317 20.9552 12.6116 21.8307C12.5026 21.9471 12.3985 22.057 12.3 22.1601C12.2016 22.057 12.0975 21.9471 11.9885 21.8307C11.1684 20.9552 10.0781 19.7256 8.99142 18.3051C7.90136 16.8802 6.83742 15.2923 6.05139 13.6997C5.25726 12.0907 4.80005 10.5829 4.80005 9.29004C4.80005 5.1479 8.15791 1.79004 12.3 1.79004C16.4422 1.79004 19.8 5.1479 19.8 9.29004C19.8 10.5829 19.3428 12.0907 18.5487 13.6997ZM12.3 24.29C12.3 24.29 21.3 15.7606 21.3 9.29004C21.3 4.31948 17.2706 0.290039 12.3 0.290039C7.32949 0.290039 3.30005 4.31948 3.30005 9.29004C3.30005 15.7606 12.3 24.29 12.3 24.29Z" fill="#F9FDFB"/>
<path d="M12.3 12.29C10.6432 12.29 9.30005 10.9469 9.30005 9.29004C9.30005 7.63318 10.6432 6.29004 12.3 6.29004C13.9569 6.29004 15.3 7.63318 15.3 9.29004C15.3 10.9469 13.9569 12.29 12.3 12.29ZM12.3 13.79C14.7853 13.79 16.8 11.7753 16.8 9.29004C16.8 6.80476 14.7853 4.79004 12.3 4.79004C9.81477 4.79004 7.80005 6.80476 7.80005 9.29004C7.80005 11.7753 9.81477 13.79 12.3 13.79Z" fill="#F9FDFB"/>
</svg>
