<svg width="17" height="17" viewBox="0 0 17 17" fill="none" xmlns="http://www.w3.org/2000/svg">
<path d="M0.116699 5.67432C0.116699 4.91064 0.238444 4.21338 0.481934 3.58252C0.725423 2.94613 1.06576 2.39827 1.50293 1.93896C1.94564 1.47965 2.46029 1.12549 3.04688 0.876465C3.63346 0.621908 4.26432 0.494629 4.93945 0.494629C5.73079 0.494629 6.43083 0.663411 7.03955 1.00098C7.64827 1.33301 8.13525 1.77295 8.50049 2.3208C8.87679 1.77295 9.36654 1.33301 9.96973 1.00098C10.5785 0.663411 11.2785 0.494629 12.0698 0.494629C12.7505 0.494629 13.3813 0.621908 13.9624 0.876465C14.549 1.12549 15.0609 1.47965 15.498 1.93896C15.9352 2.39827 16.2756 2.94613 16.519 3.58252C16.7681 4.21338 16.8926 4.91064 16.8926 5.67432C16.8926 6.85303 16.5799 8.02344 15.9546 9.18555C15.3293 10.3477 14.4466 11.4766 13.3066 12.5723C12.1722 13.668 10.8302 14.7139 9.28076 15.71C9.15348 15.793 9.0179 15.8677 8.87402 15.9341C8.73568 16.0005 8.61117 16.0337 8.50049 16.0337C8.40088 16.0337 8.27913 16.0005 8.13525 15.9341C7.99137 15.8677 7.85856 15.793 7.73682 15.71C6.18734 14.7139 4.83984 13.668 3.69434 12.5723C2.55436 11.4766 1.67171 10.3477 1.04639 9.18555C0.426595 8.02344 0.116699 6.85303 0.116699 5.67432ZM1.79346 5.66602C1.79346 6.39648 1.96777 7.14079 2.31641 7.89893C2.67057 8.65706 3.15202 9.4069 3.76074 10.1484C4.36947 10.89 5.06673 11.6011 5.85254 12.2817C6.64388 12.9569 7.47673 13.585 8.35107 14.166C8.42855 14.2269 8.47835 14.2573 8.50049 14.2573C8.52262 14.2573 8.57796 14.2269 8.6665 14.166C9.54085 13.585 10.3709 12.9569 11.1567 12.2817C11.9425 11.6011 12.6398 10.89 13.2485 10.1484C13.8573 9.4069 14.3359 8.65706 14.6846 7.89893C15.0387 7.14079 15.2158 6.39648 15.2158 5.66602C15.2158 4.96322 15.0747 4.34896 14.7925 3.82324C14.5103 3.29753 14.1229 2.88802 13.6304 2.59473C13.1434 2.2959 12.5928 2.14648 11.9785 2.14648C11.4749 2.14648 11.0433 2.23503 10.6836 2.41211C10.3294 2.58366 10.0251 2.80225 9.77051 3.06787C9.51595 3.32796 9.2946 3.58805 9.10645 3.84814C8.9847 4.00863 8.87956 4.12207 8.79102 4.18848C8.70801 4.25488 8.61117 4.28809 8.50049 4.28809C8.39535 4.28809 8.2985 4.25765 8.20996 4.19678C8.12142 4.13037 8.01628 4.01416 7.89453 3.84814C7.72298 3.58252 7.50993 3.31966 7.25537 3.05957C7.00081 2.79948 6.69092 2.58366 6.32568 2.41211C5.96045 2.23503 5.52881 2.14648 5.03076 2.14648C4.4165 2.14648 3.86312 2.2959 3.37061 2.59473C2.88363 2.88802 2.49902 3.29753 2.2168 3.82324C1.93457 4.34896 1.79346 4.96322 1.79346 5.66602Z" fill="#F71919"/>
</svg>
