<svg width="19" height="16" viewBox="0 0 19 16" fill="none" xmlns="http://www.w3.org/2000/svg">
<path fill-rule="evenodd" clip-rule="evenodd" d="M1.4689 7.32584C6.27898 5.23016 9.48646 3.84856 11.0913 3.18104C15.6736 1.27514 16.6257 0.944063 17.2463 0.93313C17.3828 0.930726 17.688 0.964553 17.8857 1.12497C18.0526 1.26041 18.0985 1.44339 18.1205 1.57181C18.1425 1.70023 18.1699 1.99277 18.1481 2.22136C17.8998 4.8304 16.8253 11.1618 16.2787 14.084C16.0474 15.3205 15.592 15.7351 15.1511 15.7757C14.1929 15.8638 13.4653 15.1424 12.5373 14.5341C11.085 13.5821 10.2646 12.9895 8.85501 12.0606C7.22595 10.9871 8.282 10.3971 9.2104 9.43277C9.45337 9.18042 13.6752 5.34038 13.7569 4.99203C13.7671 4.94846 13.7766 4.78606 13.6801 4.70031C13.5836 4.61456 13.4412 4.64388 13.3385 4.6672C13.1928 4.70026 10.8729 6.23365 6.37868 9.26737C5.72017 9.71955 5.12372 9.93986 4.58932 9.92832C4.00018 9.91559 2.86692 9.59521 2.02446 9.32136C0.991146 8.98547 0.169889 8.80789 0.241402 8.23744C0.27865 7.94032 0.687816 7.63645 1.4689 7.32584Z" fill="url(#paint0_linear_20_7667)"/>
<defs>
<linearGradient id="paint0_linear_20_7667" x1="17.8591" y1="1.03201" x2="8.09106" y2="11.658" gradientUnits="userSpaceOnUse">
<stop stop-color="#2AABEE"/>
<stop offset="1" stop-color="#229ED9"/>
</linearGradient>
</defs>
</svg>
