<svg width="31" height="24" viewBox="0 0 31 24" fill="none" xmlns="http://www.w3.org/2000/svg">
<path d="M4.96094 23.6016C3.66406 23.6016 2.67578 23.2656 1.99609 22.5938C1.32422 21.9297 0.988281 20.957 0.988281 19.6758V7.34766C0.988281 6.07422 1.32422 5.10156 1.99609 4.42969C2.67578 3.75781 3.66406 3.42188 4.96094 3.42188H7.87891C8.33984 3.42188 8.68359 3.37109 8.91016 3.26953C9.14453 3.16797 9.40625 2.96875 9.69531 2.67188L10.6211 1.71094C10.9336 1.39063 11.2695 1.15234 11.6289 0.996094C11.9883 0.839844 12.4609 0.761719 13.0469 0.761719H17.9688C18.5625 0.761719 19.0391 0.839844 19.3984 0.996094C19.7578 1.15234 20.0938 1.39063 20.4062 1.71094L21.332 2.67188C21.5273 2.875 21.7031 3.03125 21.8594 3.14062C22.0234 3.25 22.1992 3.32422 22.3867 3.36328C22.582 3.40234 22.8359 3.42188 23.1484 3.42188H26.125C27.4141 3.42188 28.3984 3.75781 29.0781 4.42969C29.7578 5.10156 30.0977 6.07422 30.0977 7.34766V19.6758C30.0977 20.957 29.7578 21.9297 29.0781 22.5938C28.3984 23.2656 27.4141 23.6016 26.125 23.6016H4.96094ZM15.543 19.793C16.4102 19.793 17.2227 19.6328 17.9805 19.3125C18.7383 18.9844 19.4023 18.5352 19.9727 17.9648C20.5508 17.3867 21 16.7188 21.3203 15.9609C21.6484 15.2031 21.8125 14.3828 21.8125 13.5C21.8125 12.3359 21.5312 11.2773 20.9688 10.3242C20.4141 9.37109 19.6602 8.61719 18.707 8.0625C17.7539 7.5 16.6992 7.21875 15.543 7.21875C14.668 7.21875 13.8516 7.37891 13.0938 7.69922C12.3359 8.01953 11.668 8.46875 11.0898 9.04688C10.5195 9.625 10.0703 10.293 9.74219 11.0508C9.42188 11.8086 9.26172 12.625 9.26172 13.5C9.26172 14.3828 9.42188 15.2031 9.74219 15.9609C10.0703 16.7188 10.5195 17.3867 11.0898 17.9648C11.668 18.5352 12.3359 18.9844 13.0938 19.3125C13.8516 19.6328 14.668 19.793 15.543 19.793ZM15.543 17.4609C14.8086 17.4609 14.1406 17.2852 13.5391 16.9336C12.9453 16.5742 12.4688 16.0977 12.1094 15.5039C11.7578 14.9023 11.582 14.2344 11.582 13.5C11.582 12.7656 11.7578 12.1016 12.1094 11.5078C12.4688 10.9062 12.9453 10.4297 13.5391 10.0781C14.1406 9.71875 14.8086 9.53906 15.543 9.53906C16.2695 9.53906 16.9297 9.71875 17.5234 10.0781C18.125 10.4297 18.6016 10.9062 18.9531 11.5078C19.3125 12.1016 19.4922 12.7656 19.4922 13.5C19.4922 14.2344 19.3125 14.9023 18.9531 15.5039C18.6016 16.0977 18.125 16.5742 17.5234 16.9336C16.9297 17.2852 16.2695 17.4609 15.543 17.4609ZM22.5508 9.19922C22.5508 9.64453 22.707 10.0234 23.0195 10.3359C23.3398 10.6406 23.7188 10.7891 24.1562 10.7812C24.5859 10.7812 24.957 10.6289 25.2695 10.3242C25.5898 10.0195 25.75 9.64453 25.75 9.19922C25.75 8.77734 25.5898 8.40625 25.2695 8.08594C24.9492 7.76563 24.5781 7.60547 24.1562 7.60547C23.7188 7.60547 23.3398 7.76563 23.0195 8.08594C22.707 8.40625 22.5508 8.77734 22.5508 9.19922Z" fill="#2A8BF3"/>
</svg>
