<svg width="15" height="16" viewBox="0 0 15 16" fill="none" xmlns="http://www.w3.org/2000/svg">
<path d="M4.79297 3.09473C4.79297 2.59342 4.91374 2.1377 5.15527 1.72754C5.40137 1.31738 5.72721 0.991536 6.13281 0.75C6.54297 0.503906 6.9987 0.380859 7.5 0.380859C8.0013 0.380859 8.45475 0.503906 8.86035 0.75C9.27051 0.991536 9.59635 1.31738 9.83789 1.72754C10.084 2.1377 10.207 2.59342 10.207 3.09473C10.207 3.50944 10.1204 3.89681 9.94727 4.25684C9.77409 4.6123 9.53711 4.91764 9.23633 5.17285C8.93555 5.42806 8.59375 5.60579 8.21094 5.70605V10.0127C8.21094 10.4775 8.18815 10.8945 8.14258 11.2637C8.09701 11.6328 8.03776 11.9495 7.96484 12.2139C7.89193 12.4736 7.81445 12.6719 7.73242 12.8086C7.65039 12.9453 7.57292 13.0137 7.5 13.0137C7.42253 13.0137 7.34277 12.9453 7.26074 12.8086C7.17871 12.6719 7.10124 12.4736 7.02832 12.2139C6.9554 11.9495 6.89616 11.6328 6.85059 11.2637C6.80501 10.8945 6.78223 10.4775 6.78223 10.0127V5.70605C6.39941 5.60124 6.05762 5.4235 5.75684 5.17285C5.45605 4.91764 5.21908 4.6123 5.0459 4.25684C4.87728 3.89681 4.79297 3.50944 4.79297 3.09473ZM6.72754 3.24512C6.98275 3.24512 7.2015 3.15397 7.38379 2.97168C7.56608 2.78483 7.65723 2.56608 7.65723 2.31543C7.65723 2.06478 7.56608 1.84831 7.38379 1.66602C7.2015 1.48372 6.98275 1.39258 6.72754 1.39258C6.48145 1.39258 6.26497 1.48372 6.07812 1.66602C5.89583 1.84831 5.80469 2.06478 5.80469 2.31543C5.80469 2.56608 5.89583 2.78483 6.07812 2.97168C6.26497 3.15397 6.48145 3.24512 6.72754 3.24512ZM7.5 15.6934C6.41536 15.6934 5.44466 15.609 4.58789 15.4404C3.73568 15.2764 3.01107 15.0485 2.41406 14.7568C1.81706 14.4652 1.36133 14.1325 1.04688 13.7588C0.736979 13.3851 0.582031 12.9886 0.582031 12.5693C0.582031 12.2002 0.68457 11.8607 0.889648 11.5508C1.09473 11.2363 1.37044 10.9561 1.7168 10.71C2.06315 10.4593 2.45508 10.2451 2.89258 10.0674C3.33008 9.88509 3.78353 9.74382 4.25293 9.64355C4.72233 9.53874 5.17806 9.47949 5.62012 9.46582V10.6689C5.24642 10.6826 4.85449 10.7373 4.44434 10.833C4.03874 10.9242 3.66048 11.0472 3.30957 11.2021C2.96322 11.3571 2.68066 11.5394 2.46191 11.749C2.24316 11.9587 2.13379 12.1865 2.13379 12.4326C2.13379 12.7288 2.26595 12.9977 2.53027 13.2393C2.7946 13.4854 3.16602 13.695 3.64453 13.8682C4.1276 14.0459 4.69499 14.1826 5.34668 14.2783C6.00293 14.374 6.7207 14.4219 7.5 14.4219C8.27474 14.4219 8.98796 14.374 9.63965 14.2783C10.2959 14.1826 10.8633 14.0459 11.3418 13.8682C11.8203 13.6904 12.1917 13.4808 12.4561 13.2393C12.7249 12.9977 12.8594 12.7288 12.8594 12.4326C12.8594 12.1865 12.75 11.9587 12.5312 11.749C12.3125 11.5394 12.0277 11.3571 11.6768 11.2021C11.3304 11.0472 10.9544 10.9242 10.5488 10.833C10.1432 10.7373 9.7513 10.6826 9.37305 10.6689V9.46582C9.8151 9.47949 10.2708 9.53874 10.7402 9.64355C11.2142 9.74382 11.6676 9.88509 12.1006 10.0674C12.5381 10.2451 12.93 10.4593 13.2764 10.71C13.6273 10.9561 13.903 11.2363 14.1035 11.5508C14.3086 11.8607 14.4111 12.2002 14.4111 12.5693C14.4111 12.9886 14.2539 13.3851 13.9395 13.7588C13.6296 14.1325 13.1761 14.4652 12.5791 14.7568C11.9821 15.0485 11.2552 15.2764 10.3984 15.4404C9.54622 15.609 8.58008 15.6934 7.5 15.6934Z" fill="#FFFDFF"/>
</svg>
