<svg width="19" height="19" viewBox="0 0 19 19" fill="none" xmlns="http://www.w3.org/2000/svg">
<path d="M5.17831 14.1874C5.17831 14.1874 1.6923 12.8798 0.945912 16.2718L1.68255 16.1251C1.68255 16.1251 0.819221 17.1174 0.513672 19C2.38537 18.6354 3.35075 17.7422 3.35075 17.7422L3.22692 18.4829C6.59427 17.6316 5.17831 14.1874 5.17831 14.1874Z" fill="url(#paint0_linear_43_16166)"/>
<path d="M5.17819 14.1875C5.17819 14.1875 3.00381 13.3717 2.53832 15.4876L2.9975 15.3959C2.9975 15.3959 2.45921 16.015 2.26831 17.1891C3.43605 16.9615 4.03797 16.4043 4.03797 16.4043L3.96058 16.8663C6.06102 16.3349 5.17762 14.1869 5.17762 14.1869L5.17819 14.1875Z" fill="url(#paint1_linear_43_16166)"/>
<path d="M7.64222 14.0143L5.26318 11.6605L5.919 11.0007L8.29746 13.3545L7.64222 14.0143Z" fill="url(#paint2_linear_43_16166)"/>
<path d="M7.06885 7.87698C7.06885 7.87698 4.8595 7.7136 3.95317 8.62566C2.97518 9.60938 2.16516 10.8132 1.5105 12.5336C1.16138 13.452 2.08319 12.5026 2.69486 11.9437C3.76514 10.9651 4.29311 10.9852 5.31238 11.2185C5.31238 11.2185 5.86156 10.0938 7.06943 7.87698H7.06885Z" fill="url(#paint3_linear_43_16166)"/>
<g style="mix-blend-mode:soft-light" opacity="0.33">
<path d="M7.06877 7.87697C7.06877 7.87697 4.85942 7.71359 3.95309 8.62565C2.97511 9.60937 2.16509 10.8132 1.51042 12.5336C1.44507 12.7056 1.42443 12.8122 1.43762 12.8678C1.43762 12.8678 2.37777 10.6882 3.40849 9.62198C4.43865 8.55571 5.12541 8.15672 7.06877 7.87697Z" fill="white"/>
</g>
<path d="M11.432 12.1942C11.432 12.1942 11.6143 14.3973 10.7079 15.3093C9.73053 16.2936 8.53069 17.1117 6.81204 17.7789C5.89482 18.1349 6.83841 17.2074 7.39333 16.5923C8.36501 15.5163 8.34094 14.99 8.09787 13.9748C8.09787 13.9748 9.22032 13.417 11.432 12.1936V12.1942Z" fill="url(#paint4_linear_43_16166)"/>
<path d="M18.3897 3.88189C18.7572 1.50113 18.2888 0.941052 18.2888 0.941052C18.2888 0.941052 17.7236 0.478429 15.3405 0.865382C12.8233 1.27354 11.2256 2.82135 10.1376 3.89679C8.73022 5.28868 6.4085 8.49207 5.31128 11.2185L6.71176 12.5897L8.09791 13.9753C10.8215 12.8575 14.0117 10.5145 15.395 9.09858C16.4641 8.00422 18.0016 6.39679 18.3897 3.88246V3.88189Z" fill="url(#paint5_linear_43_16166)"/>
<path d="M5.66675 11.5659L6.71181 12.5892L8.09796 13.9748C10.8215 12.8569 14.0117 10.514 15.395 9.09803C16.4642 8.00367 18.0016 6.39624 18.3897 3.88191C18.7572 1.50115 18.2888 0.941071 18.2888 0.941071" fill="url(#paint6_linear_43_16166)"/>
<g style="mix-blend-mode:soft-light" opacity="0.09">
<path d="M5.51025 11.4123L7.89445 13.7713" stroke="black" stroke-width="1.89" stroke-miterlimit="10"/>
</g>
<path d="M5.31177 11.2185L6.71225 12.5898L8.0984 13.9753C8.64873 13.7495 9.21855 13.4732 9.78838 13.1647L6.11032 9.52625C5.80592 10.0972 5.53362 10.6676 5.31234 11.2191L5.31177 11.2185Z" fill="url(#paint7_linear_43_16166)"/>
<path style="mix-blend-mode:soft-light" d="M9.04686 10.3908L8.09811 13.9748L7.8281 13.7971L7.64236 14.0144L6.71826 13.1L9.04686 10.3908Z" fill="url(#paint8_linear_43_16166)"/>
<g style="mix-blend-mode:soft-light">
<path d="M13.2722 1.51605L17.7546 5.95139" stroke="black" stroke-width="1.89" stroke-miterlimit="10"/>
</g>
<path d="M18.2888 0.941083C18.2888 0.941083 17.7236 0.47846 15.3405 0.865412C14.5684 0.990383 13.8833 1.22313 13.2722 1.51664L17.7546 5.9514C18.0435 5.33915 18.2705 4.65353 18.3897 3.88192C18.7572 1.50116 18.2888 0.941083 18.2888 0.941083Z" fill="url(#paint9_linear_43_16166)"/>
<mask id="mask0_43_16166" style="mask-type:luminance" maskUnits="userSpaceOnUse" x="5" y="0" width="14" height="14">
<path d="M18.3897 3.88189C18.7572 1.50113 18.2888 0.941052 18.2888 0.941052C18.2888 0.941052 17.7236 0.478429 15.3405 0.865382C12.8233 1.27354 11.2256 2.82135 10.1376 3.89679C8.73022 5.28868 6.4085 8.49207 5.31128 11.2185L6.71176 12.5897L8.09791 13.9753C10.8215 12.8575 14.0117 10.5145 15.395 9.09858C16.4641 8.00422 18.0016 6.39679 18.3897 3.88246V3.88189Z" fill="white"/>
</mask>
<g mask="url(#mask0_43_16166)">
<path d="M12.6053 1.3897L12.3774 1.6223L17.7736 6.90842L18.0014 6.67581L12.6053 1.3897Z" fill="url(#paint10_linear_43_16166)"/>
<path d="M12.197 1.89686L12.0454 2.05165L17.4415 7.33777L17.5932 7.18297L12.197 1.89686Z" fill="url(#paint11_linear_43_16166)"/>
</g>
<g style="mix-blend-mode:soft-light" opacity="0.09">
<path d="M6.10986 9.5251L9.78792 13.1642" stroke="black" stroke-width="1.89" stroke-miterlimit="10"/>
</g>
<path d="M9.02767 10.2594C9.02767 10.2594 8.82244 9.94129 6.83781 11.9385C4.85317 13.9352 3.1609 15.8482 3.31855 16.0041C3.4762 16.16 5.37886 14.4552 7.36349 12.4585C9.34813 10.4618 9.02767 10.2594 9.02767 10.2594Z" fill="url(#paint12_linear_43_16166)"/>
<g style="mix-blend-mode:soft-light" opacity="0.33">
<path d="M9.02767 10.2594C9.02767 10.2594 8.82244 9.94129 6.83781 11.9385C4.85317 13.9352 3.1609 15.8482 3.31855 16.0041C3.31855 16.0041 3.87347 15.2067 5.3628 13.6205C6.85214 12.0343 8.55989 10.3007 9.02767 10.2594Z" fill="white"/>
</g>
<path style="mix-blend-mode:soft-light" d="M13.7245 9.07209C14.6853 8.10385 14.6784 6.53999 13.7101 5.5792C12.7419 4.61899 11.178 4.62529 10.2172 5.59353C9.25703 6.56177 9.26334 8.12563 10.2316 9.08642C11.1998 10.0466 12.7637 10.0403 13.7245 9.07209Z" fill="url(#paint13_linear_43_16166)"/>
<path d="M13.6957 8.98794C14.6508 8.02486 14.6445 6.4696 13.6814 5.51454C12.7183 4.55948 11.1636 4.56579 10.208 5.52887C9.25295 6.49195 9.25926 8.04721 10.2223 9.00227C11.1854 9.95732 12.7407 9.95102 13.6957 8.98794Z" fill="#D4D4D4"/>
<path d="M13.7042 8.99697C14.6478 8.04592 14.6415 6.50958 13.6899 5.56656C12.7389 4.62297 11.2025 4.62928 10.2595 5.5809C9.31591 6.53194 9.32278 8.06828 10.2738 9.0113C11.2249 9.95489 12.7612 9.94858 13.7042 8.99697Z" fill="url(#paint14_linear_43_16166)"/>
<path d="M10.6028 8.605C9.86047 7.86893 9.85589 6.66622 10.592 5.92385C11.328 5.18147 12.5307 5.17688 13.2731 5.91295C14.0155 6.64902 14.0201 7.85173 13.284 8.5941C12.5479 9.33648 11.3452 9.34106 10.6028 8.605Z" fill="#76C9F0"/>
<path d="M10.6711 8.58723C9.95913 7.88097 9.95455 6.72699 10.6602 6.015C11.3665 5.303 12.5205 5.29842 13.2325 6.0041C13.9445 6.71036 13.949 7.86434 13.2434 8.57633C12.5371 9.28833 11.3831 9.29291 10.6711 8.58723Z" fill="url(#paint15_linear_43_16166)"/>
<mask id="mask1_43_16166" style="mask-type:luminance" maskUnits="userSpaceOnUse" x="10" y="5" width="4" height="5">
<path d="M10.6711 8.58723C9.95913 7.88097 9.95455 6.72699 10.6602 6.015C11.3665 5.303 12.5205 5.29842 13.2325 6.0041C13.9445 6.71036 13.949 7.86434 13.2434 8.57633C12.5371 9.28833 11.3831 9.29291 10.6711 8.58723Z" fill="white"/>
</mask>
<g mask="url(#mask1_43_16166)">
<path d="M13.6277 5.85651L9.59619 7.63715L9.88524 8.29159L13.9168 6.51095L13.6277 5.85651Z" fill="url(#paint16_linear_43_16166)"/>
<path d="M14.0296 6.86912L9.99805 8.64975L10.1435 8.97907L14.175 7.19843L14.0296 6.86912Z" fill="url(#paint17_linear_43_16166)"/>
</g>
<path d="M10.4036 5.89314C10.4156 5.83687 10.3795 5.78232 10.3232 5.77026C10.2669 5.75821 10.2124 5.79438 10.2003 5.85065C10.1883 5.90692 10.2244 5.96146 10.2807 5.97352C10.337 5.98558 10.3915 5.94941 10.4036 5.89314Z" fill="#A3A3A3"/>
<path d="M10.0435 6.46009C10.0555 6.40382 10.0194 6.34928 9.96308 6.33722C9.90681 6.32516 9.85227 6.36133 9.84021 6.4176C9.82815 6.47387 9.86432 6.52842 9.92059 6.54048C9.97686 6.55254 10.0314 6.51636 10.0435 6.46009Z" fill="#A3A3A3"/>
<path d="M10.8115 5.50102C10.8236 5.44475 10.7874 5.3902 10.7312 5.37814C10.6749 5.36609 10.6203 5.40226 10.6083 5.45853C10.5962 5.5148 10.6324 5.56934 10.6887 5.5814C10.7449 5.59346 10.7995 5.55729 10.8115 5.50102Z" fill="#A3A3A3"/>
<path d="M9.95061 7.68904C9.91386 7.64482 9.84841 7.63908 9.80477 7.67583C9.76113 7.71258 9.75482 7.77803 9.79156 7.82167C9.82831 7.86588 9.89377 7.87162 9.9374 7.83488C9.98162 7.79813 9.98736 7.73267 9.95061 7.68904Z" fill="#A3A3A3"/>
<path d="M10.1717 8.32302C10.135 8.27881 10.0695 8.27307 10.0259 8.30982C9.98169 8.34656 9.97595 8.41202 10.0127 8.45566C10.0494 8.49987 10.1149 8.50561 10.1585 8.46886C10.2022 8.43212 10.2085 8.36666 10.1717 8.32302Z" fill="#A3A3A3"/>
<path d="M9.90862 7.02516C9.87187 6.98094 9.80641 6.9752 9.76278 7.01195C9.71914 7.0487 9.71282 7.11415 9.74957 7.15779C9.78632 7.20143 9.85177 7.20774 9.89541 7.171C9.93962 7.13425 9.94537 7.06879 9.90862 7.02516Z" fill="#A3A3A3"/>
<path d="M11.0385 9.16341C10.9811 9.16513 10.9363 9.21336 10.938 9.27021C10.9398 9.32705 10.988 9.37241 11.0448 9.37069C11.1023 9.36896 11.147 9.32073 11.1453 9.26389C11.1436 9.20705 11.0954 9.16169 11.0385 9.16341Z" fill="#A3A3A3"/>
<path d="M11.6747 9.37891C11.6173 9.38063 11.5725 9.42886 11.5743 9.48571C11.576 9.54255 11.6242 9.58791 11.6811 9.58619C11.7379 9.58446 11.7833 9.53623 11.7815 9.47939C11.7798 9.42197 11.7316 9.37719 11.6747 9.37891Z" fill="#A3A3A3"/>
<path d="M10.4887 8.78847C10.4313 8.79019 10.3865 8.83842 10.3882 8.89527C10.39 8.95268 10.4382 8.99747 10.495 8.99575C10.5519 8.99403 10.5972 8.94579 10.5955 8.88895C10.5938 8.83153 10.5456 8.78675 10.4887 8.78847Z" fill="#A3A3A3"/>
<path d="M12.8832 9.19957C12.8493 9.2455 12.8591 9.31038 12.905 9.34483C12.951 9.37871 13.0159 9.36895 13.0503 9.32301C13.0842 9.27708 13.0744 9.2122 13.0285 9.17775C12.9826 9.14387 12.9177 9.15363 12.8832 9.19957Z" fill="#A3A3A3"/>
<path d="M13.4147 8.83899C13.3808 8.88492 13.3906 8.9498 13.4365 8.98426C13.4825 9.01813 13.5474 9.00837 13.5818 8.96244C13.6157 8.9165 13.6059 8.85162 13.56 8.81717C13.514 8.78272 13.4492 8.79305 13.4147 8.83899Z" fill="#A3A3A3"/>
<path d="M12.2553 9.37612C12.2214 9.42206 12.2312 9.48694 12.2771 9.52139C12.323 9.55527 12.3879 9.54551 12.4224 9.49957C12.4563 9.45364 12.4465 9.38876 12.4006 9.35431C12.3546 9.32043 12.2897 9.33019 12.2553 9.37612Z" fill="#A3A3A3"/>
<path d="M13.966 7.80268C13.9797 7.85837 14.036 7.89225 14.0917 7.87847C14.1474 7.86469 14.1813 7.80842 14.1675 7.75272C14.1537 7.69703 14.0974 7.66315 14.0418 7.67693C13.9861 7.69071 13.9522 7.74698 13.966 7.80268Z" fill="#A3A3A3"/>
<path d="M14.0353 7.18755C14.0491 7.24324 14.1053 7.27712 14.161 7.26334C14.2167 7.24956 14.2506 7.19329 14.2368 7.13759C14.2231 7.0819 14.1668 7.04802 14.1111 7.0618C14.0554 7.07558 14.0215 7.13185 14.0353 7.18755Z" fill="#A3A3A3"/>
<path d="M13.755 8.41832C13.7688 8.47402 13.8251 8.50789 13.8808 8.49411C13.9365 8.48033 13.9703 8.42406 13.9566 8.36837C13.9428 8.31267 13.8865 8.2788 13.8308 8.29258C13.7751 8.30636 13.7412 8.36263 13.755 8.41832Z" fill="#A3A3A3"/>
<path d="M13.6788 6.05317C13.7311 6.07671 13.7925 6.05317 13.816 6.00092C13.8396 5.94867 13.816 5.88723 13.7638 5.86369C13.7115 5.84015 13.6501 5.86369 13.6266 5.91594C13.603 5.96819 13.6266 6.02963 13.6788 6.05317Z" fill="#A3A3A3"/>
<path d="M13.2081 5.58599C13.2604 5.60953 13.3218 5.58599 13.3453 5.53374C13.3689 5.48149 13.3453 5.42005 13.2931 5.39651C13.2408 5.37297 13.1794 5.39651 13.1559 5.44876C13.1323 5.50101 13.1559 5.56245 13.2081 5.58599Z" fill="#A3A3A3"/>
<path d="M13.9535 6.63047C14.0057 6.65401 14.0672 6.63047 14.0907 6.57822C14.1142 6.52597 14.0907 6.46453 14.0385 6.44099C13.9862 6.41745 13.9248 6.44099 13.9012 6.49324C13.8777 6.54549 13.9012 6.60693 13.9535 6.63047Z" fill="#A3A3A3"/>
<path d="M11.9949 5.20132C12.0454 5.1749 12.0655 5.11232 12.0385 5.06122C12.0121 5.01069 11.9495 4.99059 11.8984 5.01758C11.8479 5.04399 11.8278 5.10658 11.8548 5.15768C11.8812 5.20821 11.9438 5.2283 11.9949 5.20132Z" fill="#A3A3A3"/>
<path d="M11.3521 5.31367C11.4026 5.28726 11.4227 5.22467 11.3957 5.17357C11.3693 5.12304 11.3067 5.10294 11.2556 5.12993C11.2051 5.15634 11.185 5.21893 11.212 5.27003C11.2384 5.32056 11.301 5.34065 11.3521 5.31367Z" fill="#A3A3A3"/>
<path d="M12.6648 5.29592C12.7153 5.26951 12.7354 5.20692 12.7085 5.15582C12.682 5.10529 12.6195 5.0852 12.5684 5.11218C12.5178 5.1386 12.4977 5.20118 12.5247 5.25228C12.5511 5.30281 12.6137 5.32291 12.6648 5.29592Z" fill="#A3A3A3"/>
<path d="M10.3816 5.87136C10.3937 5.81509 10.3575 5.76055 10.3012 5.74849C10.2449 5.73643 10.1904 5.7726 10.1783 5.82887C10.1663 5.88514 10.2025 5.93969 10.2587 5.95175C10.315 5.96381 10.3695 5.92763 10.3816 5.87136Z" fill="#D4D4D4"/>
<path d="M10.0215 6.4383C10.0336 6.38203 9.99738 6.32749 9.94111 6.31543C9.88484 6.30337 9.83029 6.33954 9.81824 6.39581C9.80618 6.45208 9.84235 6.50663 9.89862 6.51869C9.95489 6.53075 10.0094 6.49457 10.0215 6.4383Z" fill="#D4D4D4"/>
<path d="M10.7898 5.47921C10.8019 5.42294 10.7657 5.3684 10.7094 5.35634C10.6532 5.34428 10.5986 5.38045 10.5865 5.43672C10.5745 5.49299 10.6107 5.54754 10.6669 5.5596C10.7232 5.57166 10.7777 5.53548 10.7898 5.47921Z" fill="#D4D4D4"/>
<path d="M9.92864 7.6672C9.89189 7.62299 9.82643 7.61725 9.7828 7.65399C9.73916 7.69074 9.73284 7.7562 9.76959 7.79983C9.80634 7.84405 9.87179 7.84979 9.91543 7.81304C9.95907 7.77629 9.96538 7.71084 9.92864 7.6672Z" fill="#D4D4D4"/>
<path d="M10.1498 8.30123C10.1131 8.25702 10.0476 8.25128 10.004 8.28803C9.96035 8.32477 9.95403 8.39023 9.99078 8.43387C10.0275 8.47808 10.093 8.48382 10.1366 8.44707C10.1803 8.41033 10.1866 8.34487 10.1498 8.30123Z" fill="#D4D4D4"/>
<path d="M9.88689 7.00341C9.85014 6.9592 9.78469 6.95346 9.74105 6.99021C9.69741 7.02695 9.69109 7.09241 9.72784 7.13605C9.76459 7.17968 9.83005 7.186 9.87368 7.14925C9.9179 7.11251 9.92364 7.04705 9.88689 7.00341Z" fill="#D4D4D4"/>
<path d="M11.0165 9.14162C10.9591 9.14334 10.9143 9.19157 10.9161 9.24842C10.9178 9.30526 10.966 9.35062 11.0229 9.3489C11.0803 9.34717 11.1251 9.29894 11.1233 9.2421C11.1216 9.18526 11.0734 9.1399 11.0165 9.14162Z" fill="#D4D4D4"/>
<path d="M11.653 9.35715C11.5956 9.35887 11.5508 9.4071 11.5525 9.46395C11.5543 9.52079 11.6025 9.56615 11.6593 9.56443C11.7168 9.5627 11.7615 9.51447 11.7598 9.45763C11.7581 9.40079 11.7099 9.35543 11.653 9.35715Z" fill="#D4D4D4"/>
<path d="M10.4667 8.76665C10.4093 8.76837 10.3645 8.8166 10.3663 8.87345C10.368 8.93029 10.4162 8.97565 10.4731 8.97393C10.5299 8.97221 10.5753 8.92397 10.5735 8.86713C10.5718 8.80971 10.5236 8.76493 10.4667 8.76665Z" fill="#D4D4D4"/>
<path d="M12.861 9.17774C12.8271 9.22368 12.8369 9.28856 12.8828 9.32301C12.9288 9.35689 12.9936 9.34713 13.0281 9.30119C13.062 9.25526 13.0522 9.19038 13.0063 9.15593C12.9603 9.12205 12.8955 9.13181 12.861 9.17774Z" fill="#D4D4D4"/>
<path d="M13.3927 8.8172C13.3589 8.86313 13.3686 8.92802 13.4146 8.96247C13.4605 8.99634 13.5254 8.98658 13.5598 8.94065C13.5937 8.89471 13.5839 8.82983 13.538 8.79538C13.4921 8.76093 13.4272 8.77126 13.3927 8.8172Z" fill="#D4D4D4"/>
<path d="M12.2333 9.3543C12.1994 9.40024 12.2092 9.46512 12.2551 9.49957C12.3011 9.53345 12.366 9.52369 12.4004 9.47775C12.4343 9.43182 12.4245 9.36694 12.3786 9.33249C12.3327 9.29861 12.2678 9.30837 12.2333 9.3543Z" fill="#D4D4D4"/>
<path d="M13.944 7.78089C13.9578 7.83658 14.014 7.87046 14.0697 7.85668C14.1254 7.8429 14.1593 7.78663 14.1455 7.73093C14.1317 7.67524 14.0755 7.64136 14.0198 7.65514C13.9641 7.66892 13.9302 7.72519 13.944 7.78089Z" fill="#D4D4D4"/>
<path d="M14.0133 7.16574C14.0271 7.22144 14.0834 7.25531 14.1391 7.24153C14.1948 7.22775 14.2286 7.17148 14.2149 7.11579C14.2011 7.06009 14.1448 7.02622 14.0891 7.04C14.0334 7.05378 13.9995 7.11005 14.0133 7.16574Z" fill="#D4D4D4"/>
<path d="M13.7331 8.39653C13.7468 8.45223 13.8031 8.4861 13.8588 8.47232C13.9145 8.45854 13.9484 8.40227 13.9346 8.34658C13.9208 8.29088 13.8645 8.25701 13.8088 8.27079C13.7531 8.28457 13.7193 8.34084 13.7331 8.39653Z" fill="#D4D4D4"/>
<path d="M13.6568 6.0314C13.7091 6.05494 13.7705 6.0314 13.7941 5.97915C13.8176 5.9269 13.7941 5.86546 13.7418 5.84192C13.6896 5.81838 13.6281 5.84192 13.6046 5.89417C13.5811 5.94642 13.6046 6.00786 13.6568 6.0314Z" fill="#D4D4D4"/>
<path d="M13.1864 5.56419C13.2386 5.58773 13.3001 5.56419 13.3236 5.51194C13.3472 5.45969 13.3236 5.39825 13.2714 5.37471C13.2191 5.35117 13.1577 5.37471 13.1341 5.42696C13.1106 5.47921 13.1341 5.54065 13.1864 5.56419Z" fill="#D4D4D4"/>
<path d="M13.9315 6.60867C13.9838 6.63221 14.0452 6.60867 14.0687 6.55642C14.0923 6.50417 14.0687 6.44273 14.0165 6.41919C13.9642 6.39565 13.9028 6.41919 13.8793 6.47144C13.8557 6.52369 13.8793 6.58513 13.9315 6.60867Z" fill="#D4D4D4"/>
<path d="M11.9729 5.17953C12.0235 5.15312 12.0435 5.09053 12.0166 5.03943C11.9902 4.9889 11.9276 4.9688 11.8765 4.99579C11.8259 5.0222 11.8058 5.08479 11.8328 5.13589C11.8592 5.18642 11.9218 5.20651 11.9729 5.17953Z" fill="#D4D4D4"/>
<path d="M11.3301 5.29186C11.3806 5.26545 11.4007 5.20287 11.3737 5.15176C11.3473 5.10124 11.2847 5.08114 11.2336 5.10813C11.1831 5.13454 11.163 5.19712 11.19 5.24823C11.2164 5.29875 11.279 5.31885 11.3301 5.29186Z" fill="#D4D4D4"/>
<path d="M12.6431 5.2741C12.6936 5.24769 12.7137 5.1851 12.6867 5.134C12.6603 5.08347 12.5977 5.06338 12.5466 5.09036C12.4961 5.11678 12.476 5.17936 12.503 5.23046C12.5294 5.28099 12.592 5.30109 12.6431 5.2741Z" fill="#D4D4D4"/>
<path d="M10.3407 5.77329L10.2039 5.91011L10.2185 5.92473L10.3553 5.7879L10.3407 5.77329Z" fill="#B9B9B9"/>
<path d="M9.98131 6.34088L9.84448 6.47771L9.8591 6.49232L9.99592 6.3555L9.98131 6.34088Z" fill="#B9B9B9"/>
<path d="M10.7491 5.3821L10.6123 5.51892L10.6269 5.53354L10.7637 5.39671L10.7491 5.3821Z" fill="#B9B9B9"/>
<path d="M9.91002 7.65723L9.77319 7.79405L9.78781 7.80867L9.92463 7.67184L9.91002 7.65723Z" fill="#B9B9B9"/>
<path d="M10.1312 8.2917L9.99438 8.42853L10.009 8.44314L10.1458 8.30632L10.1312 8.2917Z" fill="#B9B9B9"/>
<path d="M9.86754 6.99367L9.73071 7.13049L9.74533 7.14511L9.88215 7.00829L9.86754 6.99367Z" fill="#B9B9B9"/>
<path d="M11.0807 9.16969L10.9438 9.30652L10.9585 9.32113L11.0953 9.18431L11.0807 9.16969Z" fill="#B9B9B9"/>
<path d="M11.7164 9.38484L11.5796 9.52167L11.5942 9.53628L11.731 9.39946L11.7164 9.38484Z" fill="#B9B9B9"/>
<path d="M10.5314 8.79381L10.3945 8.93063L10.4091 8.94525L10.546 8.80843L10.5314 8.79381Z" fill="#B9B9B9"/>
<path d="M13.0062 9.16368L12.8694 9.30051L12.884 9.31512L13.0208 9.1783L13.0062 9.16368Z" fill="#B9B9B9"/>
<path d="M13.5372 8.80292L13.4004 8.93974L13.415 8.95436L13.5518 8.81754L13.5372 8.80292Z" fill="#B9B9B9"/>
<path d="M12.3775 9.33991L12.2407 9.47673L12.2553 9.49135L12.3922 9.35452L12.3775 9.33991Z" fill="#B9B9B9"/>
<path d="M14.1051 7.68051L13.9683 7.81734L13.9829 7.83195L14.1197 7.69513L14.1051 7.68051Z" fill="#B9B9B9"/>
<path d="M14.1754 7.06482L14.0386 7.20164L14.0532 7.21626L14.19 7.07944L14.1754 7.06482Z" fill="#B9B9B9"/>
<path d="M13.8946 8.29616L13.7578 8.43298L13.7724 8.4476L13.9093 8.31078L13.8946 8.29616Z" fill="#B9B9B9"/>
<path d="M13.7599 5.86058L13.623 5.99741L13.6377 6.01202L13.7745 5.8752L13.7599 5.86058Z" fill="#B9B9B9"/>
<path d="M13.2897 5.3931L13.1528 5.52992L13.1674 5.54454L13.3043 5.40772L13.2897 5.3931Z" fill="#B9B9B9"/>
<path d="M14.0345 6.43808L13.8977 6.57491L13.9123 6.58952L14.0491 6.4527L14.0345 6.43808Z" fill="#B9B9B9"/>
<path d="M11.9855 5.01157L11.8486 5.14839L11.8632 5.16301L12.0001 5.02618L11.9855 5.01157Z" fill="#B9B9B9"/>
<path d="M11.3434 5.12369L11.2065 5.26051L11.2212 5.27513L11.358 5.13831L11.3434 5.12369Z" fill="#B9B9B9"/>
<path d="M12.6561 5.10636L12.5193 5.24318L12.5339 5.2578L12.6707 5.12097L12.6561 5.10636Z" fill="#B9B9B9"/>
<g style="mix-blend-mode:soft-light" opacity="0.33">
<path d="M18.2888 0.941052C18.2888 0.941052 17.7236 0.478429 15.3405 0.865382C12.8233 1.27354 11.2256 2.82135 10.1376 3.89679C8.73022 5.28868 6.4085 8.49207 5.31128 11.2185C5.31128 11.2185 10.3766 0.592508 18.2888 0.941052Z" fill="white"/>
</g>
<g style="mix-blend-mode:soft-light" opacity="0.33">
<path d="M5.60124 11.4998L5.3507 11.7458L5.26318 11.66L5.50972 11.4123L5.60124 11.4998Z" fill="white"/>
</g>
<g opacity="0.48">
<mask id="mask2_43_16166" style="mask-type:luminance" maskUnits="userSpaceOnUse" x="5" y="0" width="14" height="14">
<path d="M18.3897 3.88189C18.7572 1.50113 18.2888 0.941052 18.2888 0.941052C18.2888 0.941052 17.7236 0.478429 15.3405 0.865382C12.8233 1.27354 11.2256 2.82135 10.1376 3.89679C9.01456 5.0072 7.30967 7.27102 6.10926 9.52566C5.80486 10.0966 5.53313 10.6676 5.31128 11.2185L6.71176 12.5897L8.09791 13.9753C10.8215 12.8575 14.0117 10.5145 15.395 9.09858C16.4641 8.00422 18.0016 6.39679 18.3897 3.88246V3.88189Z" fill="white"/>
</mask>
<g mask="url(#mask2_43_16166)">
<path style="mix-blend-mode:soft-light" d="M8.0979 13.9748C8.0979 13.9748 18.2028 8.85382 18.2888 0.940506L21.1408 2.19194L11.7031 16.7247C11.7031 16.7247 9.80049 16.0104 8.0979 13.9742V13.9748Z" fill="url(#paint18_linear_43_16166)"/>
</g>
</g>
<path style="mix-blend-mode:soft-light" d="M8.0979 13.9747L8.2974 14.7005C8.2974 14.7005 10.2408 13.7426 11.432 12.1936C11.432 12.1936 9.28111 13.4835 8.0979 13.9747Z" fill="url(#paint19_linear_43_16166)"/>
<g style="mix-blend-mode:soft-light" opacity="0.33">
<path d="M7.21791 16.8881C7.81525 16.3028 8.03939 15.7375 8.07838 15.6298C8.0692 15.6527 8.04914 15.6968 8.00557 15.7708C7.87257 16.0156 7.6748 16.281 7.39333 16.5929C7.03446 16.9901 6.51451 17.5175 6.43827 17.7457C6.42394 17.7938 6.43139 17.8254 6.45318 17.8449C6.45318 17.8437 6.55464 17.5376 7.21733 16.8887L7.21791 16.8881Z" fill="white"/>
</g>
<defs>
<linearGradient id="paint0_linear_43_16166" x1="-0.805406" y1="19.9963" x2="5.11238" y2="14.4219" gradientUnits="userSpaceOnUse">
<stop stop-color="#FF8533"/>
<stop offset="1" stop-color="#FFD052"/>
</linearGradient>
<linearGradient id="paint1_linear_43_16166" x1="1.89913" y1="17.4705" x2="5.5468" y2="13.8819" gradientUnits="userSpaceOnUse">
<stop stop-color="#FFD052"/>
<stop offset="1" stop-color="#FFE9AE"/>
</linearGradient>
<linearGradient id="paint2_linear_43_16166" x1="8.71136" y1="15.6636" x2="5.29643" y2="10.0818" gradientUnits="userSpaceOnUse">
<stop stop-color="#767B7F"/>
<stop offset="1" stop-color="#A3A3A3"/>
</linearGradient>
<linearGradient id="paint3_linear_43_16166" x1="3.61724" y1="9.65238" x2="9.0896" y2="15.9067" gradientUnits="userSpaceOnUse">
<stop stop-color="#F02E54"/>
<stop offset="1" stop-color="#8F1931"/>
</linearGradient>
<linearGradient id="paint4_linear_43_16166" x1="9.4095" y1="17.4149" x2="7.65073" y2="8.55227" gradientUnits="userSpaceOnUse">
<stop stop-color="#F02E54"/>
<stop offset="1" stop-color="#8F1931"/>
</linearGradient>
<linearGradient id="paint5_linear_43_16166" x1="11.0147" y1="4.20636" x2="15.0631" y2="13.7678" gradientUnits="userSpaceOnUse">
<stop stop-color="#EEF4FA"/>
<stop offset="1" stop-color="#CDDEED"/>
</linearGradient>
<linearGradient id="paint6_linear_43_16166" x1="11.5673" y1="5.26634" x2="15.0018" y2="13.378" gradientUnits="userSpaceOnUse">
<stop stop-color="#EEF4FA"/>
<stop offset="1" stop-color="#CDDEED"/>
</linearGradient>
<linearGradient id="paint7_linear_43_16166" x1="5.10826" y1="9.17885" x2="8.76224" y2="13.6876" gradientUnits="userSpaceOnUse">
<stop stop-color="#C7C7C7"/>
<stop offset="1" stop-color="#A3A3A3"/>
</linearGradient>
<linearGradient id="paint8_linear_43_16166" x1="7.76676" y1="11.3877" x2="8.51429" y2="13.6933" gradientUnits="userSpaceOnUse">
<stop stop-color="#1D262D"/>
<stop offset="1" stop-color="#1D262D" stop-opacity="0"/>
</linearGradient>
<linearGradient id="paint9_linear_43_16166" x1="15.8502" y1="1.7041" x2="23.4058" y2="7.76406" gradientUnits="userSpaceOnUse">
<stop stop-color="#F02E54"/>
<stop offset="1" stop-color="#8F1931"/>
</linearGradient>
<linearGradient id="paint10_linear_43_16166" x1="25.4979" y1="14.8377" x2="11.5103" y2="0.334156" gradientUnits="userSpaceOnUse">
<stop stop-color="#8F1931"/>
<stop offset="1" stop-color="#F02E54"/>
</linearGradient>
<linearGradient id="paint11_linear_43_16166" x1="25.0726" y1="15.2476" x2="11.0855" y2="0.744083" gradientUnits="userSpaceOnUse">
<stop stop-color="#8F1931"/>
<stop offset="1" stop-color="#F02E54"/>
</linearGradient>
<linearGradient id="paint12_linear_43_16166" x1="5.01025" y1="11.469" x2="9.29424" y2="17.5966" gradientUnits="userSpaceOnUse">
<stop stop-color="#F02E54"/>
<stop offset="1" stop-color="#8F1931"/>
</linearGradient>
<linearGradient id="paint13_linear_43_16166" x1="12.4444" y1="8.32513" x2="13.9916" y2="11.5635" gradientUnits="userSpaceOnUse">
<stop stop-color="#1D262D"/>
<stop offset="0.68" stop-color="#1D262D" stop-opacity="0.32"/>
<stop offset="1" stop-color="#1D262D" stop-opacity="0"/>
</linearGradient>
<linearGradient id="paint14_linear_43_16166" x1="10.8568" y1="4.65737" x2="13.8951" y2="11.7647" gradientUnits="userSpaceOnUse">
<stop stop-color="#C7C7C7"/>
<stop offset="1" stop-color="#A3A3A3"/>
</linearGradient>
<linearGradient id="paint15_linear_43_16166" x1="10.4951" y1="5.06969" x2="14.0861" y2="10.557" gradientUnits="userSpaceOnUse">
<stop stop-color="#ADE5FF"/>
<stop offset="1" stop-color="#76C9F0"/>
</linearGradient>
<linearGradient id="paint16_linear_43_16166" x1="13.7058" y1="5.78321" x2="9.86719" y2="8.32506" gradientUnits="userSpaceOnUse">
<stop stop-color="#F9FBFC"/>
<stop offset="1" stop-color="#F9FBFC" stop-opacity="0"/>
</linearGradient>
<linearGradient id="paint17_linear_43_16166" x1="14.1974" y1="6.52627" x2="10.3588" y2="9.06811" gradientUnits="userSpaceOnUse">
<stop stop-color="#F9FBFC"/>
<stop offset="1" stop-color="#F9FBFC" stop-opacity="0"/>
</linearGradient>
<linearGradient id="paint18_linear_43_16166" x1="21.1253" y1="12.4533" x2="12.8468" y2="7.28366" gradientUnits="userSpaceOnUse">
<stop stop-color="#1D262D"/>
<stop offset="1" stop-color="#1D262D" stop-opacity="0"/>
</linearGradient>
<linearGradient id="paint19_linear_43_16166" x1="9.27997" y1="12.1374" x2="10.137" y2="14.0573" gradientUnits="userSpaceOnUse">
<stop stop-color="#1D262D"/>
<stop offset="1" stop-color="#1D262D" stop-opacity="0"/>
</linearGradient>
</defs>
</svg>
