<svg width="20" height="20" viewBox="0 0 20 20" fill="none" xmlns="http://www.w3.org/2000/svg">
<path d="M10.0059 19.6855C8.72331 19.6855 7.51888 19.4414 6.39258 18.9531C5.26628 18.4648 4.27344 17.791 3.41406 16.9316C2.55469 16.0723 1.8776 15.0794 1.38281 13.9531C0.894531 12.8203 0.650391 11.6126 0.650391 10.3301C0.650391 9.05404 0.894531 7.85286 1.38281 6.72656C1.87109 5.59375 2.54492 4.59766 3.4043 3.73828C4.27018 2.8724 5.26628 2.19531 6.39258 1.70703C7.51888 1.21875 8.72005 0.974609 9.99609 0.974609C11.2786 0.974609 12.4831 1.21875 13.6094 1.70703C14.7357 2.19531 15.7285 2.8724 16.5879 3.73828C17.4538 4.59766 18.1309 5.59375 18.6191 6.72656C19.1139 7.85286 19.3613 9.05404 19.3613 10.3301C19.3613 11.6126 19.1172 12.8203 18.6289 13.9531C18.1406 15.0794 17.4635 16.0723 16.5977 16.9316C15.7383 17.791 14.7454 18.4648 13.6191 18.9531C12.4928 19.4414 11.2884 19.6855 10.0059 19.6855ZM8.99023 14.8223C9.27669 14.8223 9.50781 14.6888 9.68359 14.4219L14.1074 7.45898C14.1595 7.37435 14.2051 7.28646 14.2441 7.19531C14.2897 7.09766 14.3125 7.00326 14.3125 6.91211C14.3125 6.7168 14.2409 6.56055 14.0977 6.44336C13.9544 6.32617 13.7917 6.26758 13.6094 6.26758C13.3685 6.26758 13.1699 6.39453 13.0137 6.64844L8.95117 13.1426L6.94922 10.623C6.85156 10.4863 6.75065 10.3952 6.64648 10.3496C6.54883 10.2975 6.44141 10.2715 6.32422 10.2715C6.13542 10.2715 5.97591 10.3398 5.8457 10.4766C5.71549 10.6068 5.65039 10.7695 5.65039 10.9648C5.65039 11.1536 5.71875 11.3327 5.85547 11.502L8.24805 14.4219C8.35872 14.5586 8.47266 14.6595 8.58984 14.7246C8.70703 14.7897 8.84049 14.8223 8.99023 14.8223Z" fill="#F4F9FE"/>
</svg>
