<svg width="57" height="27" viewBox="0 0 57 27" fill="none" xmlns="http://www.w3.org/2000/svg">
<path d="M19.3242 26.666C18.123 26.666 17.2832 26.4854 16.8047 26.124C16.3262 25.7725 16.0869 25.2598 16.0869 24.5859C16.0869 23.6387 16.3701 22.6475 16.9365 21.6123C17.5127 20.5771 18.3379 19.6055 19.4121 18.6973C20.4961 17.7891 21.7998 17.0518 23.3232 16.4854C24.8467 15.9189 26.5557 15.6357 28.4502 15.6357C30.3545 15.6357 32.0684 15.9189 33.5918 16.4854C35.1152 17.0518 36.4141 17.7891 37.4883 18.6973C38.5723 19.6055 39.3975 20.5771 39.9639 21.6123C40.54 22.6475 40.8281 23.6387 40.8281 24.5859C40.8281 25.2598 40.5889 25.7725 40.1104 26.124C39.6318 26.4854 38.7871 26.666 37.5762 26.666H19.3242ZM28.4648 13.0283C27.4004 13.0283 26.4189 12.7402 25.5205 12.1641C24.6318 11.5879 23.9141 10.8115 23.3672 9.83496C22.8301 8.8584 22.5566 7.76465 22.5469 6.55371C22.5469 5.3623 22.8203 4.28809 23.3672 3.33105C23.9141 2.36426 24.6318 1.59766 25.5205 1.03125C26.4189 0.464844 27.4004 0.181641 28.4648 0.181641C29.5293 0.181641 30.5059 0.459961 31.3945 1.0166C32.293 1.57324 33.0107 2.33496 33.5479 3.30176C34.0947 4.25879 34.3682 5.33301 34.3682 6.52441C34.3682 7.74512 34.0947 8.84863 33.5479 9.83496C33.0107 10.8115 32.293 11.5879 31.3945 12.1641C30.5059 12.7402 29.5293 13.0283 28.4648 13.0283ZM3.44531 26.666C2.45898 26.666 1.76074 26.4658 1.35059 26.0654C0.94043 25.6748 0.735352 25.1182 0.735352 24.3955C0.735352 23.3994 0.989258 22.3887 1.49707 21.3633C2.00488 20.3281 2.72754 19.376 3.66504 18.5068C4.6123 17.6377 5.74512 16.9346 7.06348 16.3975C8.3916 15.8604 9.87598 15.5918 11.5166 15.5918C12.8447 15.5918 14.0312 15.7676 15.0762 16.1191C16.1309 16.4609 17.0635 16.8906 17.874 17.4082C17.0439 18.0625 16.3262 18.8047 15.7207 19.6348C15.1152 20.4551 14.6465 21.2998 14.3145 22.1689C13.9922 23.0283 13.8311 23.8486 13.8311 24.6299C13.8311 25.4209 14.0264 26.0996 14.417 26.666H3.44531ZM11.5166 13.3652C10.5889 13.3652 9.73438 13.1162 8.95312 12.6182C8.17188 12.1104 7.54688 11.4316 7.07812 10.582C6.60938 9.72266 6.375 8.77051 6.375 7.72559C6.36523 6.68066 6.59961 5.74316 7.07812 4.91309C7.55664 4.07324 8.18652 3.40918 8.96777 2.9209C9.74902 2.42285 10.5986 2.17383 11.5166 2.17383C12.4346 2.17383 13.2842 2.41797 14.0654 2.90625C14.8564 3.38477 15.4863 4.04395 15.9551 4.88379C16.4238 5.71387 16.6582 6.65137 16.6582 7.69629C16.6582 8.76074 16.4238 9.72266 15.9551 10.582C15.4863 11.4316 14.8613 12.1104 14.0801 12.6182C13.2988 13.1162 12.4443 13.3652 11.5166 13.3652ZM53.4551 26.666H42.4688C42.8594 26.0996 43.0547 25.4209 43.0547 24.6299C43.0645 23.8486 42.9033 23.0283 42.5713 22.1689C42.249 21.2998 41.7852 20.4551 41.1797 19.6348C40.5742 18.8047 39.8564 18.0625 39.0264 17.4082C39.8271 16.8906 40.7549 16.4609 41.8096 16.1191C42.8643 15.7676 44.0557 15.5918 45.3838 15.5918C47.0244 15.5918 48.5039 15.8604 49.8223 16.3975C51.1504 16.9346 52.2832 17.6377 53.2207 18.5068C54.168 19.376 54.8955 20.3281 55.4033 21.3633C55.9111 22.3887 56.165 23.3994 56.165 24.3955C56.165 25.1182 55.96 25.6748 55.5498 26.0654C55.1396 26.4658 54.4414 26.666 53.4551 26.666ZM45.3691 13.3652C44.4512 13.3652 43.6016 13.1162 42.8203 12.6182C42.0391 12.1104 41.4092 11.4316 40.9307 10.582C40.4619 9.72266 40.2275 8.76074 40.2275 7.69629C40.2275 6.65137 40.4619 5.71387 40.9307 4.88379C41.4092 4.04395 42.0391 3.38477 42.8203 2.90625C43.6113 2.41797 44.4609 2.17383 45.3691 2.17383C46.2969 2.17383 47.1514 2.42285 47.9326 2.9209C48.7139 3.40918 49.3389 4.07324 49.8076 4.91309C50.2861 5.74316 50.5254 6.68066 50.5254 7.72559C50.5254 8.77051 50.2861 9.72266 49.8076 10.582C49.3389 11.4316 48.7139 12.1104 47.9326 12.6182C47.1611 13.1162 46.3066 13.3652 45.3691 13.3652Z" fill="#24A1DE"/>
</svg>
