<svg width="26" height="27" viewBox="0 0 26 27" fill="none" xmlns="http://www.w3.org/2000/svg">
<path d="M3.37207 26.666C2.55176 26.666 1.90723 26.4805 1.43848 26.1094C0.969727 25.7383 0.735352 25.2305 0.735352 24.5859C0.735352 23.6387 1.01855 22.6475 1.58496 21.6123C2.16113 20.5771 2.98633 19.6055 4.06055 18.6973C5.14453 17.7891 6.44824 17.0518 7.97168 16.4854C9.49512 15.9189 11.2041 15.6357 13.0986 15.6357C15.0029 15.6357 16.7168 15.9189 18.2402 16.4854C19.7637 17.0518 21.0625 17.7891 22.1367 18.6973C23.2207 19.6055 24.0508 20.5771 24.627 21.6123C25.2031 22.6475 25.4912 23.6387 25.4912 24.5859C25.4912 25.2305 25.2568 25.7383 24.7881 26.1094C24.3193 26.4805 23.6748 26.666 22.8545 26.666H3.37207ZM13.1133 13.0283C12.0488 13.0283 11.0674 12.7402 10.1689 12.1641C9.28027 11.5879 8.5625 10.8115 8.01562 9.83496C7.47852 8.8584 7.20996 7.76465 7.20996 6.55371C7.20996 5.3623 7.47852 4.28809 8.01562 3.33105C8.5625 2.36426 9.28516 1.59766 10.1836 1.03125C11.082 0.464844 12.0586 0.181641 13.1133 0.181641C14.1777 0.181641 15.1592 0.459961 16.0576 1.0166C16.9561 1.57324 17.6738 2.33496 18.2109 3.30176C18.7578 4.25879 19.0312 5.33301 19.0312 6.52441C19.0312 7.74512 18.7578 8.84863 18.2109 9.83496C17.6738 10.8115 16.9561 11.5879 16.0576 12.1641C15.1592 12.7402 14.1777 13.0283 13.1133 13.0283Z" fill="#24A1DE"/>
</svg>
