<svg width="29" height="25" viewBox="0 0 29 25" fill="none" xmlns="http://www.w3.org/2000/svg">
<path d="M16.5 24.6445C15.6797 24.6445 14.8789 24.5625 14.0977 24.3984C13.3242 24.2422 12.5781 24.0117 11.8594 23.707C12.1562 23.3711 12.418 23.0195 12.6445 22.6523C12.8711 22.2852 13.0312 21.9531 13.125 21.6562C13.6484 21.8594 14.1992 22.0117 14.7773 22.1133C15.3633 22.2227 15.9336 22.2773 16.4883 22.2773C17.4258 22.2773 18.332 22.1484 19.207 21.8906C20.0898 21.6328 20.9102 21.2656 21.668 20.7891C22.4258 20.3125 23.0938 19.7539 23.6719 19.1133C23.2578 18.6445 22.7031 18.2109 22.0078 17.8125C21.3125 17.4141 20.4961 17.0938 19.5586 16.8516C18.6289 16.6094 17.6055 16.4883 16.4883 16.4883C15.9492 16.4883 15.4336 16.5195 14.9414 16.582C14.457 16.6367 13.9961 16.7188 13.5586 16.8281C13.293 15.7266 12.8008 14.7344 12.082 13.8516C11.3633 12.9688 10.4844 12.2695 9.44531 11.7539C8.41406 11.2305 7.29297 10.9688 6.08203 10.9688C5.54297 10.9688 5.01172 11.0273 4.48828 11.1445C4.66016 9.64453 5.08984 8.24609 5.77734 6.94922C6.47266 5.65234 7.36328 4.51562 8.44922 3.53906C9.53516 2.5625 10.7617 1.80078 12.1289 1.25391C13.5039 0.707031 14.957 0.433594 16.4883 0.433594C18.1445 0.433594 19.7031 0.75 21.1641 1.38281C22.625 2.01562 23.9141 2.89063 25.0312 4.00781C26.1484 5.11719 27.0234 6.40234 27.6562 7.86328C28.2891 9.32422 28.6055 10.8828 28.6055 12.5391C28.6055 14.1953 28.2891 15.7578 27.6562 17.2266C27.0312 18.6875 26.1602 19.9727 25.043 21.082C23.9258 22.1992 22.6367 23.0703 21.1758 23.6953C19.7148 24.3281 18.1562 24.6445 16.5 24.6445ZM16.4883 14.4609C17.2461 14.4688 17.9258 14.2773 18.5273 13.8867C19.1367 13.4961 19.6211 12.9648 19.9805 12.293C20.3398 11.6211 20.5195 10.8672 20.5195 10.0312C20.5195 9.24219 20.3398 8.51953 19.9805 7.86328C19.6211 7.19922 19.1367 6.67187 18.5273 6.28125C17.9258 5.88281 17.2461 5.68359 16.4883 5.68359C15.7383 5.68359 15.0547 5.88281 14.4375 6.28125C13.8281 6.67187 13.3438 7.19922 12.9844 7.86328C12.625 8.51953 12.4492 9.24219 12.457 10.0312C12.457 10.8672 12.6328 11.6172 12.9844 12.2812C13.3438 12.9453 13.8281 13.4727 14.4375 13.8633C15.0469 14.2539 15.7305 14.4531 16.4883 14.4609ZM6.09375 24.7148C5.26562 24.7148 4.48828 24.5586 3.76172 24.2461C3.03516 23.9336 2.39453 23.4961 1.83984 22.9336C1.28516 22.3789 0.851562 21.7383 0.539062 21.0117C0.21875 20.2852 0.0585938 19.5078 0.0585938 18.6797C0.0585938 17.8516 0.21875 17.0742 0.539062 16.3477C0.851562 15.6211 1.28516 14.9805 1.83984 14.4258C2.39453 13.8633 3.03516 13.4258 3.76172 13.1133C4.48828 12.8008 5.26562 12.6445 6.09375 12.6445C6.92188 12.6445 7.69922 12.8008 8.42578 13.1133C9.15234 13.4258 9.79297 13.8594 10.3477 14.4141C10.9023 14.9688 11.3359 15.6133 11.6484 16.3477C11.9688 17.0742 12.1289 17.8516 12.1289 18.6797C12.1289 19.5 11.9688 20.2734 11.6484 21C11.3359 21.7344 10.8984 22.3789 10.3359 22.9336C9.78125 23.4883 9.13672 23.9219 8.40234 24.2344C7.67578 24.5547 6.90625 24.7148 6.09375 24.7148ZM6.09375 22.5C6.33594 22.5 6.52734 22.4258 6.66797 22.2773C6.81641 22.1289 6.89062 21.9375 6.89062 21.7031V19.4766H9.11719C9.35156 19.4766 9.54297 19.4062 9.69141 19.2656C9.83984 19.1172 9.91406 18.9219 9.91406 18.6797C9.91406 18.4375 9.83984 18.2461 9.69141 18.1055C9.54297 17.957 9.35156 17.8828 9.11719 17.8828H6.89062V15.6562C6.89062 15.4219 6.81641 15.2305 6.66797 15.082C6.52734 14.9336 6.33594 14.8594 6.09375 14.8594C5.85156 14.8594 5.65625 14.9336 5.50781 15.082C5.36719 15.2305 5.29688 15.4219 5.29688 15.6562V17.8828H3.07031C2.83594 17.8828 2.64453 17.957 2.49609 18.1055C2.34766 18.2461 2.27344 18.4375 2.27344 18.6797C2.27344 18.9219 2.34766 19.1172 2.49609 19.2656C2.64453 19.4062 2.83594 19.4766 3.07031 19.4766H5.29688V21.7031C5.29688 21.9375 5.36719 22.1289 5.50781 22.2773C5.65625 22.4258 5.85156 22.5 6.09375 22.5Z" fill="#24A1DE"/>
</svg>
