<svg width="33" height="33" viewBox="0 0 33 33" fill="none" xmlns="http://www.w3.org/2000/svg">
<path d="M16.3333 0.333496C7.49677 0.333496 0.333252 7.49702 0.333252 16.3335C0.333252 23.8369 5.49933 30.1332 12.4683 31.8625V21.2231H9.16909V16.3335H12.4683V14.2266C12.4683 8.78086 14.9329 6.2567 20.2795 6.2567C21.2933 6.2567 23.0424 6.45574 23.7579 6.65414V11.0861C23.3803 11.0465 22.7243 11.0266 21.9096 11.0266C19.2862 11.0266 18.2725 12.0205 18.2725 14.6042V16.3335H23.4987L22.6008 21.2231H18.2725V32.2164C26.195 31.2596 32.3339 24.514 32.3339 16.3335C32.3333 7.49702 25.1697 0.333496 16.3333 0.333496Z" fill="#721BFF"/>
</svg>
