<svg width="115" height="37" viewBox="0 0 115 37" fill="none" xmlns="http://www.w3.org/2000/svg">
<path d="M114.577 28.3422H110.307V16.9665C110.307 15.077 109.996 13.6923 109.375 12.8122C108.754 11.9322 107.848 11.4922 106.657 11.4922C105.467 11.4922 104.354 11.9452 103.318 12.8511C102.309 13.7311 101.597 14.8829 101.183 16.3065V28.3422H96.9121V16.9665C96.9121 15.077 96.6015 13.6923 95.9803 12.8122C95.3591 11.9322 94.4662 11.4922 93.3014 11.4922C92.1108 11.4922 90.9978 11.9322 89.9625 12.8122C88.953 13.6923 88.2283 14.8441 87.7883 16.2676V28.3422H83.5176V8.0368H87.4001V12.1134C88.2024 10.6898 89.2507 9.60273 90.5449 8.85212C91.8649 8.07562 93.3661 7.68738 95.0485 7.68738C96.7309 7.68738 98.051 8.12739 99.0087 9.00742C99.9922 9.88745 100.6 10.9875 100.833 12.3075C101.713 10.8063 102.788 9.66744 104.056 8.89094C105.35 8.08857 106.825 7.68738 108.482 7.68738C109.673 7.68738 110.669 7.90738 111.471 8.3474C112.274 8.78741 112.895 9.39567 113.335 10.1722C113.775 10.9228 114.086 11.8028 114.267 12.8122C114.474 13.7958 114.577 14.8441 114.577 15.9571V28.3422Z" fill="black"/>
<path d="M69.6287 28.7304C68.0498 28.7304 66.6133 28.4586 65.3191 27.9151C64.0509 27.3457 62.9508 26.5821 62.019 25.6244C61.0872 24.6409 60.3625 23.5279 59.8448 22.2855C59.3531 21.0172 59.1072 19.6713 59.1072 18.2477C59.1072 16.3324 59.5472 14.5852 60.4272 13.0064C61.3072 11.4016 62.5367 10.1204 64.1156 9.16272C65.6944 8.17916 67.5451 7.68738 69.6675 7.68738C71.7899 7.68738 73.6147 8.17916 75.1418 9.16272C76.6948 10.1204 77.8984 11.3887 78.7525 12.9675C79.6067 14.5464 80.0337 16.2418 80.0337 18.0536C80.0337 18.3642 80.0208 18.6618 79.9949 18.9466C79.969 19.2054 79.9431 19.4254 79.9173 19.6066H63.6497C63.7273 20.7972 64.0509 21.8455 64.6203 22.7514C65.2156 23.6314 65.9662 24.3303 66.8721 24.8479C67.778 25.3397 68.7487 25.5856 69.784 25.5856C70.9228 25.5856 71.997 25.3009 73.0064 24.7314C74.0418 24.162 74.7406 23.4114 75.103 22.4796L78.7525 23.5279C78.3125 24.5114 77.6395 25.4044 76.7336 26.2068C75.8536 26.9833 74.8053 27.6045 73.5888 28.0704C72.3723 28.5104 71.0523 28.7304 69.6287 28.7304ZM63.5332 16.7724H75.8018C75.7242 15.6076 75.3877 14.5852 74.7924 13.7052C74.223 12.7993 73.4853 12.1005 72.5794 11.6087C71.6993 11.091 70.7158 10.8322 69.6287 10.8322C68.5675 10.8322 67.5839 11.091 66.678 11.6087C65.798 12.1005 65.0732 12.7993 64.5038 13.7052C63.9344 14.5852 63.6109 15.6076 63.5332 16.7724Z" fill="black"/>
<path d="M46.5386 28.7304C44.9597 28.7304 43.5232 28.4586 42.2291 27.9151C40.9608 27.3457 39.8607 26.5821 38.9289 25.6244C37.9972 24.6409 37.2724 23.5279 36.7548 22.2855C36.263 21.0172 36.0171 19.6713 36.0171 18.2477C36.0171 16.3324 36.4571 14.5852 37.3371 13.0064C38.2172 11.4016 39.4466 10.1204 41.0255 9.16272C42.6044 8.17916 44.455 7.68738 46.5774 7.68738C48.6998 7.68738 50.5246 8.17916 52.0517 9.16272C53.6047 10.1204 54.8083 11.3887 55.6624 12.9675C56.5166 14.5464 56.9436 16.2418 56.9436 18.0536C56.9436 18.3642 56.9307 18.6618 56.9048 18.9466C56.8789 19.2054 56.853 19.4254 56.8272 19.6066H40.5596C40.6372 20.7972 40.9608 21.8455 41.5302 22.7514C42.1255 23.6314 42.8761 24.3303 43.782 24.8479C44.688 25.3397 45.6586 25.5856 46.6939 25.5856C47.8328 25.5856 48.9069 25.3009 49.9164 24.7314C50.9517 24.162 51.6505 23.4114 52.0129 22.4796L55.6624 23.5279C55.2224 24.5114 54.5494 25.4044 53.6435 26.2068C52.7635 26.9833 51.7152 27.6045 50.4987 28.0704C49.2822 28.5104 47.9622 28.7304 46.5386 28.7304ZM40.4431 16.7724H52.7117C52.6341 15.6076 52.2976 14.5852 51.7023 13.7052C51.1329 12.7993 50.3952 12.1005 49.4893 11.6087C48.6093 11.091 47.6257 10.8322 46.5386 10.8322C45.4774 10.8322 44.4938 11.091 43.5879 11.6087C42.7079 12.1005 41.9832 12.7993 41.4137 13.7052C40.8443 14.5852 40.5208 15.6076 40.4431 16.7724Z" fill="black"/>
<path d="M25.6982 0H29.969V22.4795C29.969 23.5149 30.1243 24.1749 30.4349 24.4596C30.7455 24.7443 31.1337 24.8867 31.5996 24.8867C32.1173 24.8867 32.5961 24.8349 33.0361 24.7314C33.502 24.6278 33.9032 24.4984 34.2397 24.3431L34.8609 27.7209C34.2397 27.9797 33.502 28.1997 32.6479 28.3809C31.7937 28.5621 31.0302 28.6527 30.3572 28.6527C28.9078 28.6527 27.7689 28.2515 26.9406 27.4491C26.1124 26.6208 25.6982 25.482 25.6982 24.0325V0Z" fill="black"/>
<path d="M9.27912 28.5363C7.90731 28.5363 6.65198 28.2645 5.51312 27.721C4.37426 27.1515 3.3907 26.388 2.56243 25.4303C1.76006 24.4726 1.12592 23.3726 0.660021 22.1302C0.220007 20.8878 0 19.5807 0 18.2089C0 16.7594 0.232948 15.4006 0.698846 14.1323C1.16474 12.864 1.81182 11.751 2.64008 10.7934C3.49423 9.8098 4.49073 9.04624 5.62959 8.5027C6.76845 7.95915 8.03673 7.68738 9.43442 7.68738C11.0651 7.68738 12.4886 8.07562 13.7051 8.85212C14.9475 9.62861 15.9699 10.6381 16.7723 11.8805V8.0368H20.5383V27.7598C20.5383 29.7269 20.0595 31.3964 19.1018 32.7682C18.17 34.14 16.8888 35.1883 15.2581 35.913C13.6275 36.6377 11.7898 37.0001 9.74502 37.0001C7.49318 37.0001 5.62959 36.6118 4.15425 35.8353C2.67891 35.0588 1.42357 33.9976 0.388248 32.6517L2.79538 30.3999C3.57188 31.487 4.56838 32.3152 5.78489 32.8846C7.02728 33.4541 8.34732 33.7388 9.74502 33.7388C10.9098 33.7388 11.9839 33.5188 12.9675 33.0788C13.9769 32.6646 14.7793 32.0046 15.3746 31.0987C15.9699 30.2187 16.2676 29.1057 16.2676 27.7598V24.6538C15.5428 25.8703 14.5463 26.828 13.2781 27.5268C12.0098 28.1998 10.6768 28.5363 9.27912 28.5363ZM10.6768 25.0809C11.3239 25.0809 11.9451 24.9773 12.5404 24.7703C13.1357 24.5373 13.6793 24.2397 14.171 23.8773C14.6887 23.4891 15.1287 23.062 15.4911 22.5961C15.8534 22.1043 16.1123 21.5866 16.2676 21.0431V15.7241C15.9311 14.8441 15.4523 14.0805 14.8311 13.4334C14.2099 12.7605 13.511 12.2428 12.7345 11.8805C11.958 11.5181 11.1686 11.3369 10.3662 11.3369C9.43442 11.3369 8.59321 11.544 7.8426 11.9581C7.11787 12.3463 6.49668 12.877 5.97901 13.5499C5.46135 14.197 5.06016 14.9347 4.77545 15.7629C4.49073 16.5912 4.34837 17.4453 4.34837 18.3254C4.34837 19.2572 4.50367 20.1242 4.81427 20.9266C5.15075 21.729 5.60371 22.4537 6.17314 23.1008C6.74257 23.722 7.41553 24.2138 8.19202 24.5761C8.96852 24.9126 9.79678 25.0809 10.6768 25.0809Z" fill="black"/>
</svg>
