<svg width="212" height="53" viewBox="0 0 212 53" fill="none" xmlns="http://www.w3.org/2000/svg">
<path d="M211.436 40.6934H205.366V24.5238C205.366 21.838 204.924 19.8697 204.041 18.6188C203.158 17.3679 201.871 16.7424 200.178 16.7424C198.486 16.7424 196.904 17.3863 195.432 18.674C193.997 19.9249 192.986 21.5621 192.397 23.5856V40.6934H186.326V24.5238C186.326 21.838 185.885 19.8697 185.002 18.6188C184.119 17.3679 182.85 16.7424 181.194 16.7424C179.502 16.7424 177.92 17.3679 176.448 18.6188C175.013 19.8697 173.983 21.5069 173.358 23.5304V40.6934H167.287V11.8308H172.806V17.6254C173.946 15.6019 175.436 14.0567 177.276 12.9898C179.152 11.886 181.286 11.3342 183.678 11.3342C186.069 11.3342 187.945 11.9596 189.307 13.2105C190.705 14.4614 191.569 16.025 191.9 17.9014C193.151 15.7675 194.678 14.1487 196.481 13.0449C198.32 11.9044 200.417 11.3342 202.772 11.3342C204.464 11.3342 205.881 11.6469 207.021 12.2723C208.162 12.8978 209.045 13.7624 209.67 14.8661C210.296 15.933 210.737 17.1839 210.995 18.6188C211.289 20.0168 211.436 21.5069 211.436 23.0889V40.6934Z" fill="white"/>
<path d="M147.545 41.2453C145.301 41.2453 143.259 40.859 141.419 40.0864C139.616 39.277 138.053 38.1916 136.728 36.8304C135.404 35.4323 134.374 33.8503 133.638 32.0843C132.939 30.2815 132.589 28.3684 132.589 26.3449C132.589 23.6224 133.215 21.139 134.466 18.8947C135.717 16.6137 137.464 14.7925 139.708 13.4313C141.953 12.0332 144.583 11.3342 147.6 11.3342C150.617 11.3342 153.211 12.0332 155.381 13.4313C157.589 14.7925 159.3 16.5953 160.514 18.8395C161.728 21.0838 162.335 23.4936 162.335 26.069C162.335 26.5105 162.317 26.9336 162.28 27.3383C162.243 27.7062 162.206 28.0189 162.169 28.2764H139.046C139.157 29.9688 139.616 31.4589 140.426 32.7465C141.272 33.9974 142.339 34.9908 143.627 35.7266C144.914 36.4256 146.294 36.7752 147.766 36.7752C149.384 36.7752 150.911 36.3705 152.346 35.5611C153.818 34.7517 154.811 33.6847 155.326 32.3602L160.514 33.8503C159.888 35.2483 158.932 36.5176 157.644 37.6581C156.393 38.7619 154.903 39.6449 153.174 40.3071C151.445 40.9326 149.568 41.2453 147.545 41.2453ZM138.881 24.2478H156.32C156.209 22.5922 155.731 21.139 154.885 19.8881C154.075 18.6004 153.027 17.607 151.739 16.908C150.488 16.1722 149.09 15.8043 147.545 15.8043C146.036 15.8043 144.638 16.1722 143.351 16.908C142.1 17.607 141.07 18.6004 140.26 19.8881C139.451 21.139 138.991 22.5922 138.881 24.2478Z" fill="white"/>
<path d="M114.724 41.2453C112.48 41.2453 110.438 40.859 108.598 40.0864C106.796 39.277 105.232 38.1916 103.908 36.8304C102.583 35.4323 101.553 33.8503 100.817 32.0843C100.118 30.2815 99.7686 28.3684 99.7686 26.3449C99.7686 23.6224 100.394 21.139 101.645 18.8947C102.896 16.6137 104.643 14.7925 106.888 13.4313C109.132 12.0332 111.762 11.3342 114.779 11.3342C117.796 11.3342 120.39 12.0332 122.561 13.4313C124.768 14.7925 126.479 16.5953 127.693 18.8395C128.907 21.0838 129.514 23.4936 129.514 26.069C129.514 26.5105 129.496 26.9336 129.459 27.3383C129.422 27.7062 129.385 28.0189 129.349 28.2764H106.225C106.336 29.9688 106.796 31.4589 107.605 32.7465C108.451 33.9974 109.518 34.9908 110.806 35.7266C112.094 36.4256 113.473 36.7752 114.945 36.7752C116.564 36.7752 118.09 36.3705 119.525 35.5611C120.997 34.7517 121.99 33.6847 122.505 32.3602L127.693 33.8503C127.068 35.2483 126.111 36.5176 124.823 37.6581C123.572 38.7619 122.082 39.6449 120.353 40.3071C118.624 40.9326 116.748 41.2453 114.724 41.2453ZM106.06 24.2478H123.499C123.388 22.5922 122.91 21.139 122.064 19.8881C121.255 18.6004 120.206 17.607 118.918 16.908C117.667 16.1722 116.269 15.8043 114.724 15.8043C113.216 15.8043 111.818 16.1722 110.53 16.908C109.279 17.607 108.249 18.6004 107.439 19.8881C106.63 21.139 106.17 22.5922 106.06 24.2478Z" fill="white"/>
<path d="M85.1011 0.407227H91.1716V32.3602C91.1716 33.8319 91.3923 34.77 91.8338 35.1747C92.2753 35.5794 92.8272 35.7818 93.4894 35.7818C94.2252 35.7818 94.9059 35.7082 95.5313 35.5611C96.1936 35.4139 96.7638 35.2299 97.2421 35.0092L98.1251 39.8104C97.2421 40.1783 96.1936 40.491 94.9795 40.7486C93.7654 41.0061 92.68 41.1349 91.7235 41.1349C89.6632 41.1349 88.0444 40.5646 86.867 39.4241C85.6897 38.2468 85.1011 36.628 85.1011 34.5677V0.407227Z" fill="white"/>
<path d="M61.7626 40.9693C59.8127 40.9693 58.0283 40.583 56.4095 39.8104C54.7907 39.001 53.3926 37.9157 52.2153 36.5544C51.0748 35.1931 50.1734 33.6295 49.5112 31.8636C48.8857 30.0976 48.573 28.2396 48.573 26.2897C48.573 24.2294 48.9041 22.2979 49.5664 20.4951C50.2286 18.6924 51.1484 17.1104 52.3257 15.7491C53.5398 14.351 54.9562 13.2657 56.575 12.4931C58.1939 11.7205 59.9966 11.3342 61.9833 11.3342C64.3012 11.3342 66.3247 11.886 68.0538 12.9898C69.8198 14.0935 71.2731 15.5283 72.4136 17.2943V11.8308H77.7667V39.8656C77.7667 42.6617 77.086 45.0347 75.7248 46.9847C74.4003 48.9346 72.5791 50.4246 70.2613 51.4548C67.9435 52.4849 65.3313 53 62.4248 53C59.224 53 56.575 52.4481 54.478 51.3444C52.3809 50.2407 50.5965 48.7322 49.1249 46.8191L52.5464 43.6183C53.6502 45.1635 55.0666 46.3408 56.7958 47.1502C58.5618 47.9596 60.4381 48.3643 62.4248 48.3643C64.0804 48.3643 65.6072 48.0516 67.0053 47.4262C68.4402 46.8375 69.5807 45.8993 70.4269 44.6116C71.2731 43.3608 71.6962 41.7787 71.6962 39.8656V35.4507C70.666 37.1799 69.2496 38.5411 67.4468 39.5345C65.644 40.4911 63.7493 40.9693 61.7626 40.9693ZM63.7493 36.0577C64.6691 36.0577 65.5521 35.9106 66.3983 35.6162C67.2444 35.2851 68.0171 34.862 68.7161 34.347C69.4519 33.7951 70.0774 33.188 70.5924 32.5258C71.1075 31.8268 71.4754 31.0909 71.6962 30.3183V22.7578C71.2179 21.5069 70.5372 20.4215 69.6543 19.5018C68.7713 18.5452 67.7779 17.8094 66.6742 17.2943C65.5705 16.7792 64.4483 16.5217 63.3078 16.5217C61.9833 16.5217 60.7876 16.816 59.7207 17.4047C58.6905 17.9566 57.8075 18.7108 57.0717 19.6673C56.3359 20.5871 55.7656 21.6357 55.3609 22.813C54.9562 23.9903 54.7539 25.2044 54.7539 26.4553C54.7539 27.7798 54.9746 29.0123 55.4161 30.1528C55.8944 31.2933 56.5383 32.3234 57.3477 33.2432C58.1571 34.1262 59.1136 34.8252 60.2174 35.3403C61.3211 35.8186 62.4984 36.0577 63.7493 36.0577Z" fill="white"/>
<path d="M0.0603162 42.7944C0.039166 44.757 2.4521 45.7086 3.77628 44.26L12.6907 34.5076C13.2939 33.8544 14.0089 33.3229 14.7909 32.9576C15.5394 32.6033 16.366 32.3929 17.2151 32.3376L30.4249 31.4384C32.3923 31.3045 33.145 28.8054 31.5788 27.6073L3.87128 6.41146C2.47293 5.34175 0.453334 6.32606 0.434361 8.08654L0.0603162 42.7944Z" fill="#721BFF"/>
</svg>
