<svg width="32" height="33" viewBox="0 0 32 33" fill="none" xmlns="http://www.w3.org/2000/svg">
<path d="M16.333 13.4243V19.6207H24.9439C24.5658 21.6134 23.4311 23.3008 21.7293 24.4353L26.922 28.4644C29.9475 25.6718 31.6929 21.5699 31.6929 16.6972C31.6929 15.5627 31.5911 14.4717 31.402 13.4245L16.333 13.4243Z" fill="#721BFF"/>
<path d="M7.36599 19.3787L6.19484 20.2752L2.04932 23.5042C4.68204 28.726 10.078 32.3333 16.3325 32.3333C20.6524 32.3333 24.2742 30.9078 26.9215 28.4643L21.7288 24.4351C20.3033 25.3951 18.4851 25.977 16.3325 25.977C12.1725 25.977 8.63808 23.1698 7.37253 19.3879L7.36599 19.3787Z" fill="#721BFF"/>
<path d="M2.04949 9.1626C0.958641 11.3152 0.333252 13.7444 0.333252 16.3334C0.333252 18.9225 0.958641 21.3516 2.04949 23.5042C2.04949 23.5187 7.37322 19.3733 7.37322 19.3733C7.05322 18.4133 6.86408 17.3952 6.86408 16.3332C6.86408 15.2713 7.05322 14.2532 7.37322 13.2932L2.04949 9.1626Z" fill="#721BFF"/>
<path d="M16.3328 6.7044C18.6892 6.7044 20.7837 7.51892 22.4565 9.08986L27.0382 4.5081C24.26 1.91905 20.6529 0.333496 16.3328 0.333496C10.0783 0.333496 4.68204 3.92622 2.04932 9.1626L7.37288 13.2935C8.63826 9.51165 12.1728 6.7044 16.3328 6.7044Z" fill="#721BFF"/>
</svg>
