<svg width="33" height="33" viewBox="0 0 33 33" fill="none" xmlns="http://www.w3.org/2000/svg">
<g clip-path="url(#clip0_60_326)">
<path d="M16.3334 3.21475C20.6084 3.21475 21.1146 3.2335 22.7959 3.3085C24.3584 3.37725 25.2021 3.63975 25.7646 3.8585C26.5084 4.146 27.0459 4.496 27.6021 5.05225C28.1646 5.61475 28.5084 6.146 28.7959 6.88975C29.0146 7.45225 29.2771 8.30225 29.3459 9.8585C29.4209 11.546 29.4396 12.0522 29.4396 16.321C29.4396 20.596 29.4209 21.1022 29.3459 22.7835C29.2771 24.346 29.0146 25.1897 28.7959 25.7522C28.5084 26.496 28.1584 27.0335 27.6021 27.5897C27.0396 28.1522 26.5084 28.496 25.7646 28.7835C25.2021 29.0022 24.3521 29.2647 22.7959 29.3335C21.1084 29.4085 20.6021 29.4272 16.3334 29.4272C12.0584 29.4272 11.5521 29.4085 9.87088 29.3335C8.30838 29.2647 7.46462 29.0022 6.90212 28.7835C6.15837 28.496 5.62087 28.146 5.06462 27.5897C4.50212 27.0272 4.15837 26.496 3.87087 25.7522C3.65212 25.1897 3.38962 24.3397 3.32087 22.7835C3.24587 21.096 3.22712 20.5897 3.22712 16.321C3.22712 12.046 3.24587 11.5397 3.32087 9.8585C3.38962 8.296 3.65212 7.45225 3.87087 6.88975C4.15837 6.146 4.50837 5.6085 5.06462 5.05225C5.62712 4.48975 6.15837 4.146 6.90212 3.8585C7.46462 3.63975 8.31463 3.37725 9.87088 3.3085C11.5521 3.2335 12.0584 3.21475 16.3334 3.21475ZM16.3334 0.333496C11.9896 0.333496 11.4459 0.352246 9.73962 0.427246C8.03962 0.502246 6.87087 0.777246 5.85837 1.171C4.80212 1.5835 3.90837 2.12725 3.02087 3.021C2.12712 3.9085 1.58337 4.80225 1.17087 5.85225C0.777124 6.871 0.502124 8.0335 0.427124 9.7335C0.352124 11.446 0.333374 11.9897 0.333374 16.3335C0.333374 20.6772 0.352124 21.221 0.427124 22.9272C0.502124 24.6272 0.777124 25.796 1.17087 26.8085C1.58337 27.8647 2.12712 28.7585 3.02087 29.646C3.90837 30.5335 4.80212 31.0835 5.85212 31.4897C6.87087 31.8835 8.03337 32.1585 9.73337 32.2335C11.4396 32.3085 11.9834 32.3272 16.3271 32.3272C20.6709 32.3272 21.2146 32.3085 22.9209 32.2335C24.6209 32.1585 25.7896 31.8835 26.8021 31.4897C27.8521 31.0835 28.7459 30.5335 29.6334 29.646C30.5209 28.7585 31.0709 27.8647 31.4771 26.8147C31.8709 25.796 32.1459 24.6335 32.2209 22.9335C32.2959 21.2272 32.3146 20.6835 32.3146 16.3397C32.3146 11.996 32.2959 11.4522 32.2209 9.746C32.1459 8.046 31.8709 6.87725 31.4771 5.86475C31.0834 4.80225 30.5396 3.9085 29.6459 3.021C28.7584 2.1335 27.8646 1.5835 26.8146 1.17725C25.7959 0.783496 24.6334 0.508496 22.9334 0.433496C21.2209 0.352246 20.6771 0.333496 16.3334 0.333496Z" fill="#721BFF"/>
<path d="M16.3334 8.11475C11.7959 8.11475 8.11462 11.796 8.11462 16.3335C8.11462 20.871 11.7959 24.5522 16.3334 24.5522C20.8709 24.5522 24.5521 20.871 24.5521 16.3335C24.5521 11.796 20.8709 8.11475 16.3334 8.11475ZM16.3334 21.6647C13.3896 21.6647 11.0021 19.2772 11.0021 16.3335C11.0021 13.3897 13.3896 11.0022 16.3334 11.0022C19.2771 11.0022 21.6646 13.3897 21.6646 16.3335C21.6646 19.2772 19.2771 21.6647 16.3334 21.6647Z" fill="#721BFF"/>
<path d="M26.7959 7.7896C26.7959 8.8521 25.9334 9.70835 24.8771 9.70835C23.8146 9.70835 22.9584 8.84585 22.9584 7.7896C22.9584 6.7271 23.8209 5.87085 24.8771 5.87085C25.9334 5.87085 26.7959 6.73335 26.7959 7.7896Z" fill="#721BFF"/>
</g>
<defs>
<clipPath id="clip0_60_326">
<rect width="32" height="32" fill="white" transform="translate(0.333374 0.333496)"/>
</clipPath>
</defs>
</svg>
