<svg width="33" height="33" viewBox="0 0 33 33" fill="none" xmlns="http://www.w3.org/2000/svg">
<path d="M29.9645 0.333496H2.69575C1.3895 0.333496 0.333252 1.36475 0.333252 2.63975V30.021C0.333252 31.296 1.3895 32.3335 2.69575 32.3335H29.9645C31.2708 32.3335 32.3333 31.296 32.3333 30.0272V2.63975C32.3333 1.36475 31.2708 0.333496 29.9645 0.333496ZM9.827 27.6022H5.077V12.3272H9.827V27.6022ZM7.452 10.246C5.927 10.246 4.69575 9.01475 4.69575 7.496C4.69575 5.97725 5.927 4.746 7.452 4.746C8.97075 4.746 10.202 5.97725 10.202 7.496C10.202 9.0085 8.97075 10.246 7.452 10.246ZM27.602 27.6022H22.8583V20.1772C22.8583 18.4085 22.827 16.1272 20.3895 16.1272C17.9208 16.1272 17.5458 18.0585 17.5458 20.0522V27.6022H12.8083V12.3272H17.3583V14.4147H17.4208C18.052 13.2147 19.602 11.946 21.9083 11.946C26.7145 11.946 27.602 15.1085 27.602 19.221V27.6022V27.6022Z" fill="#721BFF"/>
</svg>
