<svg width="13" height="14" viewBox="0 0 13 14" fill="none" xmlns="http://www.w3.org/2000/svg">
<path fill-rule="evenodd" clip-rule="evenodd" d="M2.75 4C2.75 3.00544 3.14509 2.05161 3.84835 1.34835C4.55161 0.645088 5.50544 0.25 6.5 0.25C7.49456 0.25 8.44839 0.645088 9.15165 1.34835C9.85491 2.05161 10.25 3.00544 10.25 4H10.875C11.2065 4 11.5245 4.1317 11.7589 4.36612C11.9933 4.60054 12.125 4.91848 12.125 5.25V11.5C12.125 11.8315 11.9933 12.1495 11.7589 12.3839C11.5245 12.6183 11.2065 12.75 10.875 12.75H2.125C1.79348 12.75 1.47554 12.6183 1.24112 12.3839C1.0067 12.1495 0.875 11.8315 0.875 11.5V5.25C0.875 4.91848 1.0067 4.60054 1.24112 4.36612C1.47554 4.1317 1.79348 4 2.125 4H2.75ZM6.5 1.5C7.16304 1.5 7.79893 1.76339 8.26777 2.23223C8.73661 2.70107 9 3.33696 9 4H4C4 3.33696 4.26339 2.70107 4.73223 2.23223C5.20107 1.76339 5.83696 1.5 6.5 1.5ZM7.75 7.75C7.74999 7.96942 7.69223 8.18496 7.58252 8.37498C7.47281 8.565 7.31502 8.72279 7.125 8.8325V9.625C7.125 9.79076 7.05915 9.94973 6.94194 10.0669C6.82473 10.1842 6.66576 10.25 6.5 10.25C6.33424 10.25 6.17527 10.1842 6.05806 10.0669C5.94085 9.94973 5.875 9.79076 5.875 9.625V8.8325C5.63671 8.69491 5.45048 8.48254 5.34519 8.22832C5.2399 7.97411 5.22143 7.69225 5.29265 7.42647C5.36387 7.16069 5.52079 6.92583 5.73908 6.75832C5.95738 6.59081 6.22484 6.50001 6.5 6.5C6.83152 6.5 7.14946 6.6317 7.38388 6.86612C7.6183 7.10054 7.75 7.41848 7.75 7.75Z" fill="#676767"/>
</svg>
