<svg width="18" height="13" viewBox="0 0 18 13" fill="none" xmlns="http://www.w3.org/2000/svg">
<path d="M17.364 6.68124C17.5515 6.51138 17.6568 6.28104 17.6568 6.04086C17.6568 5.80068 17.5515 5.57034 17.364 5.40048L11.707 0.276522C11.6148 0.190011 11.5044 0.121008 11.3824 0.0735369C11.2604 0.0260662 11.1292 0.00107929 10.9964 3.41987e-05C10.8636 -0.0010109 10.732 0.0219069 10.6091 0.06745C10.4862 0.112993 10.3745 0.18025 10.2806 0.265295C10.1867 0.35034 10.1125 0.451471 10.0622 0.562788C10.0119 0.674104 9.98661 0.793376 9.98776 0.913644C9.98892 1.03391 10.0165 1.15277 10.0689 1.26327C10.1213 1.37378 10.1975 1.47373 10.293 1.55728L14.243 5.13509L1.00001 5.13509C0.734797 5.13509 0.480442 5.23052 0.292906 5.40038C0.10537 5.57025 1.33514e-05 5.80063 1.33514e-05 6.04086C1.33514e-05 6.28109 0.10537 6.51147 0.292906 6.68134C0.480442 6.8512 0.734797 6.94663 1.00001 6.94663L14.243 6.94663L10.293 10.5244C10.1109 10.6953 10.0101 10.9241 10.0123 11.1616C10.0146 11.399 10.1198 11.6262 10.3052 11.7942C10.4906 11.9621 10.7414 12.0574 11.0036 12.0594C11.2658 12.0615 11.5184 11.9702 11.707 11.8052L17.364 6.68124Z" fill="white"/>
</svg>
