<svg width="21" height="21" viewBox="0 0 21 21" fill="none" xmlns="http://www.w3.org/2000/svg">
<g clip-path="url(#clip0_123_428)">
<path d="M20.437 13.9494C20.437 15.8894 19.3599 17.462 17.2437 17.462H3.19328C1.07709 17.462 0 15.8894 0 13.9494V6.92423C0 4.98431 1.07709 3.41162 3.19328 3.41162H17.2437C19.3599 3.41162 20.437 4.98431 20.437 6.92423V13.9494Z" fill="#EC1C24"/>
<path fill-rule="evenodd" clip-rule="evenodd" d="M12.7028 12.4548C11.9677 13.6015 10.4372 14.3248 8.83576 13.857C7.32438 13.4144 6.28625 11.95 6.37215 10.3706C6.45581 8.78414 7.64754 7.43498 9.19628 7.16132C10.8373 6.86977 12.1555 7.74952 12.7185 8.67046C12.0514 8.01456 11.2757 7.71919 10.3676 7.82297C9.65612 7.90472 9.06153 8.22628 8.59595 8.76914C7.68459 9.82994 7.71812 11.4208 8.66971 12.4219C9.21544 12.9961 9.88667 13.2966 10.6789 13.3039C11.4705 13.3097 12.1421 13.0101 12.7047 12.4564" fill="white"/>
<path d="M14.124 9.28613L14.7722 9.88775L15.637 9.69615L15.2643 10.5009L15.7142 11.2612L14.8361 11.1555L14.2488 11.8197L14.0793 10.9505L13.2656 10.5979L14.039 10.1688L14.124 9.28613Z" fill="white"/>
</g>
<defs>
<clipPath id="clip0_123_428">
<rect width="20.437" height="20.437" fill="white" transform="translate(0 0.218262)"/>
</clipPath>
</defs>
</svg>
