<svg width="19" height="19" viewBox="0 0 19 19" fill="none" xmlns="http://www.w3.org/2000/svg">
<g clip-path="url(#clip0_108_109)">
<path d="M9.5 9.5C10.4395 9.5 11.3578 9.22142 12.139 8.69948C12.9201 8.17755 13.5289 7.4357 13.8884 6.56775C14.2479 5.6998 14.342 4.74473 14.1587 3.82332C13.9755 2.90191 13.5231 2.05554 12.8588 1.39124C12.1945 0.726945 11.3481 0.274552 10.4267 0.091272C9.50527 -0.0920077 8.5502 0.00205811 7.68225 0.361574C6.8143 0.721091 6.07246 1.32991 5.55052 2.11104C5.02858 2.89218 4.75 3.81054 4.75 4.75C4.75126 6.00939 5.25211 7.21685 6.14263 8.10737C7.03316 8.9979 8.24061 9.49874 9.5 9.5ZM9.5 1.58334C10.1263 1.58334 10.7385 1.76906 11.2593 2.11701C11.7801 2.46497 12.1859 2.95954 12.4256 3.53817C12.6653 4.1168 12.728 4.75351 12.6058 5.36779C12.4836 5.98206 12.182 6.54631 11.7392 6.98917C11.2963 7.43204 10.7321 7.73364 10.1178 7.85582C9.50351 7.97801 8.8668 7.9153 8.28817 7.67562C7.70954 7.43594 7.21497 7.03006 6.86701 6.50931C6.51906 5.98855 6.33333 5.37631 6.33333 4.75C6.33333 3.91015 6.66696 3.1047 7.26083 2.51083C7.85469 1.91697 8.66015 1.58334 9.5 1.58334Z" fill="black"/>
<path d="M9.5 11.0834C7.61098 11.0855 5.79992 11.8368 4.46418 13.1726C3.12844 14.5083 2.3771 16.3193 2.375 18.2084C2.375 18.4183 2.45841 18.6197 2.60687 18.7682C2.75534 18.9166 2.9567 19 3.16667 19C3.37663 19 3.57799 18.9166 3.72646 18.7682C3.87493 18.6197 3.95833 18.4183 3.95833 18.2084C3.95833 16.7386 4.54219 15.3291 5.58145 14.2898C6.62071 13.2506 8.03026 12.6667 9.5 12.6667C10.9697 12.6667 12.3793 13.2506 13.4186 14.2898C14.4578 15.3291 15.0417 16.7386 15.0417 18.2084C15.0417 18.4183 15.1251 18.6197 15.2735 18.7682C15.422 18.9166 15.6234 19 15.8333 19C16.0433 19 16.2447 18.9166 16.3931 18.7682C16.5416 18.6197 16.625 18.4183 16.625 18.2084C16.6229 16.3193 15.8716 14.5083 14.5358 13.1726C13.2001 11.8368 11.389 11.0855 9.5 11.0834Z" fill="black"/>
</g>
<defs>
<clipPath id="clip0_108_109">
<rect width="19" height="19" fill="white"/>
</clipPath>
</defs>
</svg>
